<svg xmlns="http://www.w3.org/2000/svg" xmlns:xlink="http://www.w3.org/1999/xlink" width="500" zoomAndPan="magnify" viewBox="0 0 375 374.999991" height="500" preserveAspectRatio="xMidYMid meet" version="1.0"><defs><g/><clipPath id="252fe25593"><path d="M 188 62.945312 L 194 62.945312 L 194 75 L 188 75 Z M 188 62.945312 " clip-rule="nonzero"/></clipPath><clipPath id="bdd954359a"><path d="M 188 300 L 194 300 L 194 311.945312 L 188 311.945312 Z M 188 300 " clip-rule="nonzero"/></clipPath><clipPath id="5aaa9f67da"><path d="M 286 248 L 337.695312 248 L 337.695312 308 L 286 308 Z M 286 248 " clip-rule="nonzero"/></clipPath><clipPath id="909943145e"><path d="M 44.445312 224 L 309 224 L 309 308 L 44.445312 308 Z M 44.445312 224 " clip-rule="nonzero"/></clipPath><clipPath id="bca005b800"><path d="M 109.714844 199.058594 L 121.714844 199.058594 L 121.714844 210.308594 L 109.714844 210.308594 Z M 109.714844 199.058594 " clip-rule="nonzero"/></clipPath><clipPath id="82ebb5fcef"><path d="M 253.148438 199.058594 L 265.148438 199.058594 L 265.148438 210.308594 L 253.148438 210.308594 Z M 253.148438 199.058594 " clip-rule="nonzero"/></clipPath></defs><path fill="#723f2e" d="M 223.476562 151.105469 C 217.875 127.109375 198.148438 123.546875 190.023438 123.03125 C 191.433594 122.378906 193.527344 122.03125 193.414062 120.589844 C 193.300781 119.148438 190.960938 118.550781 189.445312 118.308594 C 188.582031 118.171875 187.722656 118.171875 186.863281 118.308594 C 185.34375 118.550781 183.003906 119.148438 182.894531 120.589844 C 182.78125 122.027344 184.820312 122.371094 186.226562 123.003906 C 161.816406 125.503906 153.285156 145.308594 152.269531 160.234375 C 157.710938 168.121094 176.234375 169.300781 176.234375 169.300781 C 176.234375 169.300781 163.796875 169.832031 153.898438 165.664062 C 144 161.496094 145.824219 158.785156 153.03125 150.816406 C 145.34375 154.035156 142.316406 160.1875 145.488281 162.867188 C 165.382812 179.539062 200.558594 176.476562 214.6875 171.429688 C 197.726562 175.09375 186.636719 175.179688 171.695312 172.296875 C 187.523438 174.890625 218.855469 171.425781 227.613281 165.414062 C 236.925781 159.03125 229.675781 153.265625 223.476562 151.105469 Z M 188.558594 166.679688 C 163.152344 167.113281 154.710938 158.742188 154.710938 158.742188 C 158.152344 124.683594 188.117188 124.953125 188.558594 124.957031 C 189 124.964844 218.972656 124.695312 222.40625 158.742188 C 222.40625 158.742188 213.953125 167.101562 188.558594 166.679688 Z M 188.558594 166.679688 " fill-opacity="1" fill-rule="nonzero"/><path fill="#723f2e" d="M 264.257812 169.53125 C 264.257812 169.53125 257.195312 156.578125 231.78125 166.65625 C 223.3125 170.015625 226.734375 181.097656 217.929688 185.875 C 215.964844 186.652344 214.1875 184.496094 209.773438 188.742188 C 209.328125 189.167969 208.820312 189.488281 208.25 189.707031 C 201.957031 192.117188 174.757812 202.542969 161.4375 206.464844 C 147.355469 210.613281 138.066406 212.75 138.824219 219.695312 C 143.027344 225.269531 151.261719 220.460938 164.355469 213.828125 C 176.742188 207.558594 203.410156 195.785156 209.644531 193.234375 C 210.210938 193 210.800781 192.886719 211.414062 192.890625 C 217.542969 192.957031 217.355469 190.167969 219.320312 189.390625 C 229.007812 186.835938 234.105469 197.253906 242.578125 193.890625 C 267.992188 183.808594 264.257812 169.53125 264.257812 169.53125 Z M 226.496094 182.765625 C 226.496094 182.714844 226.472656 182.644531 226.457031 182.546875 C 226.429688 182.355469 226.390625 182.070312 226.347656 181.707031 C 226.328125 181.507812 226.316406 181.308594 226.320312 181.109375 C 226.320312 180.886719 226.320312 180.648438 226.320312 180.394531 C 226.320312 180.140625 226.359375 179.863281 226.382812 179.582031 C 226.382812 179.4375 226.410156 179.289062 226.429688 179.140625 C 226.445312 178.988281 226.480469 178.835938 226.503906 178.679688 C 226.53125 178.523438 226.570312 178.367188 226.601562 178.203125 C 226.632812 178.042969 226.664062 177.875 226.714844 177.710938 C 226.816406 177.382812 226.910156 177.039062 227.03125 176.691406 C 227.148438 176.34375 227.292969 175.996094 227.453125 175.644531 L 227.71875 175.117188 L 227.851562 174.851562 C 227.894531 174.761719 227.941406 174.671875 227.996094 174.585938 L 228.3125 174.070312 C 228.414062 173.894531 228.523438 173.726562 228.644531 173.558594 C 228.890625 173.230469 229.125 172.878906 229.402344 172.566406 C 229.539062 172.410156 229.667969 172.246094 229.8125 172.085938 C 229.957031 171.925781 230.105469 171.78125 230.25 171.628906 C 230.394531 171.476562 230.539062 171.316406 230.695312 171.175781 L 231.164062 170.746094 C 231.320312 170.597656 231.484375 170.46875 231.648438 170.332031 C 231.808594 170.195312 231.96875 170.066406 232.136719 169.933594 L 232.640625 169.558594 C 232.808594 169.433594 232.976562 169.3125 233.148438 169.203125 L 233.667969 168.859375 C 233.835938 168.75 234.011719 168.648438 234.195312 168.546875 C 234.378906 168.441406 234.539062 168.335938 234.726562 168.242188 L 235.253906 167.964844 C 235.421875 167.867188 235.601562 167.785156 235.769531 167.699219 C 235.941406 167.613281 236.113281 167.53125 236.285156 167.457031 C 236.628906 167.308594 236.960938 167.148438 237.292969 167.023438 C 237.953125 166.757812 238.589844 166.546875 239.179688 166.363281 C 239.769531 166.179688 240.320312 166.042969 240.8125 165.9375 C 241.300781 165.832031 241.730469 165.757812 242.085938 165.699219 C 242.4375 165.644531 242.71875 165.617188 242.910156 165.601562 C 243.101562 165.585938 243.203125 165.582031 243.203125 165.582031 L 242.9375 165.691406 C 242.761719 165.761719 242.503906 165.875 242.179688 166.015625 C 241.855469 166.15625 241.460938 166.332031 241.019531 166.546875 C 240.578125 166.757812 240.082031 166.996094 239.550781 167.265625 C 239.285156 167.40625 239.019531 167.546875 238.726562 167.703125 L 238.292969 167.9375 L 237.859375 168.1875 C 237.5625 168.351562 237.265625 168.539062 236.960938 168.71875 C 236.65625 168.898438 236.351562 169.097656 236.046875 169.300781 C 235.742188 169.503906 235.429688 169.710938 235.128906 169.933594 C 234.972656 170.046875 234.816406 170.152344 234.667969 170.269531 L 234.214844 170.617188 C 234.058594 170.730469 233.914062 170.851562 233.765625 170.976562 L 233.320312 171.34375 L 232.890625 171.730469 C 232.746094 171.859375 232.601562 171.992188 232.46875 172.121094 C 232.203125 172.386719 231.914062 172.648438 231.671875 172.9375 C 231.542969 173.078125 231.410156 173.203125 231.285156 173.355469 L 230.925781 173.789062 C 230.449219 174.351562 230.007812 174.941406 229.601562 175.554688 C 229.40625 175.847656 229.226562 176.152344 229.042969 176.441406 L 228.554688 177.328125 C 228.40625 177.621094 228.273438 177.914062 228.136719 178.195312 C 228.066406 178.332031 228.003906 178.472656 227.949219 178.613281 C 227.890625 178.753906 227.835938 178.894531 227.777344 179.027344 C 227.71875 179.164062 227.65625 179.292969 227.613281 179.425781 C 227.566406 179.558594 227.523438 179.6875 227.476562 179.8125 C 227.429688 179.933594 227.382812 180.0625 227.339844 180.179688 C 227.300781 180.300781 227.246094 180.417969 227.21875 180.535156 C 227.085938 180.996094 226.9375 181.402344 226.847656 181.746094 C 226.761719 182.085938 226.683594 182.359375 226.628906 182.539062 C 226.601562 182.632812 226.582031 182.703125 226.566406 182.753906 L 226.542969 182.824219 C 226.542969 182.824219 226.503906 182.800781 226.496094 182.75 Z M 171.453125 208.824219 C 170.671875 209.234375 169.558594 209.824219 168.210938 210.523438 L 166.046875 211.652344 L 163.625 212.890625 L 161.03125 214.214844 C 160.152344 214.667969 159.253906 215.125 158.367188 215.601562 C 157.476562 216.078125 156.589844 216.5625 155.703125 217.011719 C 154.816406 217.457031 153.929688 217.863281 153.058594 218.226562 L 152.40625 218.492188 L 152.085938 218.625 L 151.925781 218.6875 L 151.890625 218.703125 L 151.867188 218.703125 L 151.824219 218.722656 L 151.738281 218.753906 C 151.292969 218.914062 150.859375 219.054688 150.433594 219.183594 C 149.632812 219.425781 148.820312 219.621094 147.996094 219.769531 C 147.613281 219.84375 147.242188 219.890625 146.890625 219.9375 C 146.539062 219.980469 146.199219 220.007812 145.878906 220.011719 C 145.328125 220.035156 144.777344 220.007812 144.230469 219.925781 C 143.875 219.871094 143.535156 219.773438 143.207031 219.628906 C 143.121094 219.59375 143.039062 219.554688 142.957031 219.503906 L 142.875 219.460938 L 142.972656 219.472656 C 143.058594 219.492188 143.148438 219.503906 143.238281 219.511719 C 143.570312 219.539062 143.90625 219.53125 144.238281 219.488281 C 144.753906 219.425781 145.257812 219.328125 145.753906 219.1875 C 146.332031 219.03125 146.976562 218.824219 147.667969 218.570312 C 148.363281 218.316406 149.105469 218.011719 149.878906 217.671875 C 150.265625 217.5 150.671875 217.324219 151.054688 217.144531 L 152.269531 216.523438 C 153.113281 216.097656 153.996094 215.683594 154.914062 215.300781 C 155.832031 214.917969 156.765625 214.566406 157.714844 214.191406 C 158.660156 213.820312 159.585938 213.441406 160.507812 213.066406 L 163.207031 211.964844 L 165.730469 210.9375 L 167.996094 210.019531 C 169.394531 209.453125 170.570312 208.992188 171.390625 208.664062 L 172.679688 208.152344 Z M 171.453125 208.824219 " fill-opacity="1" fill-rule="nonzero"/><path fill="#723f2e" d="M 119.050781 173.914062 C 119.050781 173.914062 114.550781 186.492188 120.816406 188.804688 C 126.007812 190.71875 141.140625 194.375 146.152344 195.570312 C 147.242188 195.828125 148.320312 195.789062 149.386719 195.457031 L 158.066406 192.773438 C 159.375 192.367188 160.671875 192.398438 161.960938 192.855469 L 200.222656 206.570312 C 200.953125 206.835938 201.457031 207.332031 201.730469 208.058594 C 201.984375 208.746094 202.449219 209.230469 203.128906 209.511719 L 233.222656 221.882812 C 233.222656 221.882812 238.53125 223.601562 240.351562 218.667969 C 242.171875 213.734375 237.015625 211.589844 237.015625 211.589844 L 206.101562 201.453125 C 205.40625 201.222656 204.738281 201.285156 204.097656 201.644531 C 203.414062 202.023438 202.710938 202.078125 201.980469 201.800781 L 163.976562 187.375 C 162.699219 186.886719 161.691406 186.066406 160.960938 184.910156 L 156.109375 177.234375 C 155.515625 176.292969 154.722656 175.5625 153.730469 175.054688 C 149.144531 172.703125 135.261719 165.660156 130.070312 163.742188 C 123.800781 161.433594 119.050781 173.914062 119.050781 173.914062 Z M 146.953125 191.554688 C 146.878906 191.75 146.773438 191.921875 146.636719 192.078125 C 146.496094 192.230469 146.335938 192.351562 146.148438 192.441406 C 145.960938 192.535156 145.765625 192.585938 145.558594 192.601562 C 145.351562 192.613281 145.152344 192.589844 144.953125 192.527344 L 122.621094 185.335938 C 122.414062 185.269531 122.226562 185.164062 122.0625 185.019531 C 121.898438 184.875 121.765625 184.707031 121.671875 184.507812 C 121.574219 184.3125 121.523438 184.105469 121.511719 183.886719 C 121.5 183.667969 121.53125 183.457031 121.609375 183.25 L 121.734375 182.90625 C 121.808594 182.707031 121.914062 182.535156 122.054688 182.378906 C 122.195312 182.226562 122.363281 182.101562 122.550781 182.011719 C 122.738281 181.921875 122.9375 181.871094 123.148438 181.859375 C 123.355469 181.847656 123.558594 181.875 123.757812 181.941406 L 145.960938 189.480469 C 146.167969 189.550781 146.351562 189.65625 146.511719 189.800781 C 146.675781 189.945312 146.800781 190.113281 146.894531 190.308594 C 146.988281 190.503906 147.039062 190.710938 147.050781 190.925781 C 147.058594 191.144531 147.027344 191.351562 146.953125 191.554688 Z M 148.539062 187.242188 C 148.464844 187.4375 148.359375 187.613281 148.21875 187.769531 C 148.074219 187.925781 147.910156 188.046875 147.71875 188.136719 C 147.53125 188.226562 147.328125 188.277344 147.121094 188.289062 C 146.910156 188.300781 146.707031 188.269531 146.507812 188.203125 L 124.371094 180.519531 C 124.167969 180.449219 123.984375 180.34375 123.824219 180.199219 C 123.664062 180.054688 123.539062 179.886719 123.445312 179.691406 C 123.355469 179.496094 123.304688 179.289062 123.292969 179.074219 C 123.285156 178.859375 123.316406 178.652344 123.390625 178.449219 L 123.519531 178.097656 C 123.59375 177.898438 123.703125 177.722656 123.84375 177.566406 C 123.988281 177.410156 124.15625 177.289062 124.351562 177.199219 C 124.542969 177.109375 124.746094 177.0625 124.957031 177.050781 C 125.167969 177.042969 125.375 177.074219 125.574219 177.144531 L 147.59375 185.1875 C 147.796875 185.257812 147.976562 185.363281 148.132812 185.507812 C 148.292969 185.652344 148.417969 185.820312 148.507812 186.015625 C 148.597656 186.210938 148.644531 186.414062 148.652344 186.625 C 148.660156 186.839844 148.625 187.046875 148.550781 187.246094 Z M 237.605469 217.652344 C 237.535156 217.84375 237.429688 218.011719 237.289062 218.164062 C 237.152344 218.3125 236.992188 218.429688 236.804688 218.515625 C 236.621094 218.601562 236.425781 218.648438 236.222656 218.65625 C 236.019531 218.664062 235.820312 218.632812 235.628906 218.5625 C 235.4375 218.492188 235.269531 218.386719 235.117188 218.25 C 234.96875 218.109375 234.851562 217.949219 234.765625 217.761719 C 234.679688 217.578125 234.632812 217.382812 234.625 217.179688 C 234.617188 216.976562 234.648438 216.777344 234.71875 216.585938 C 234.789062 216.394531 234.894531 216.226562 235.03125 216.074219 C 235.171875 215.925781 235.332031 215.808594 235.519531 215.722656 C 235.703125 215.636719 235.898438 215.589844 236.101562 215.582031 C 236.304688 215.574219 236.503906 215.605469 236.695312 215.675781 C 236.886719 215.746094 237.054688 215.851562 237.203125 215.988281 C 237.355469 216.128906 237.472656 216.289062 237.558594 216.476562 C 237.644531 216.660156 237.691406 216.855469 237.699219 217.058594 C 237.707031 217.261719 237.675781 217.460938 237.605469 217.652344 Z M 149.21875 180.882812 C 149.414062 180.960938 149.585938 181.070312 149.738281 181.214844 C 149.890625 181.359375 150.011719 181.527344 150.097656 181.71875 C 150.183594 181.910156 150.230469 182.113281 150.234375 182.324219 C 150.242188 182.53125 150.210938 182.738281 150.136719 182.933594 C 150.0625 183.132812 149.953125 183.3125 149.808594 183.46875 C 149.664062 183.625 149.496094 183.746094 149.300781 183.835938 C 149.105469 183.925781 148.902344 183.972656 148.691406 183.980469 C 148.476562 183.988281 148.269531 183.957031 148.070312 183.882812 L 126.105469 175.695312 C 125.90625 175.621094 125.730469 175.511719 125.574219 175.367188 C 125.417969 175.222656 125.296875 175.050781 125.207031 174.859375 C 125.121094 174.667969 125.070312 174.464844 125.0625 174.25 C 125.054688 174.039062 125.089844 173.832031 125.160156 173.632812 L 125.289062 173.285156 C 125.363281 173.082031 125.472656 172.902344 125.621094 172.746094 C 125.769531 172.585938 125.941406 172.464844 126.136719 172.375 C 126.332031 172.289062 126.539062 172.242188 126.753906 172.234375 C 126.972656 172.230469 127.179688 172.265625 127.378906 172.347656 Z M 150.84375 176.582031 C 151.03125 176.667969 151.199219 176.785156 151.339844 176.9375 C 151.484375 177.085938 151.59375 177.257812 151.671875 177.453125 C 151.75 177.644531 151.789062 177.84375 151.785156 178.054688 C 151.785156 178.261719 151.746094 178.460938 151.667969 178.652344 C 151.589844 178.847656 151.476562 179.015625 151.332031 179.167969 C 151.1875 179.316406 151.019531 179.433594 150.828125 179.515625 C 150.636719 179.601562 150.441406 179.644531 150.230469 179.652344 C 150.023438 179.660156 149.824219 179.625 149.628906 179.554688 L 127.847656 170.871094 C 127.652344 170.792969 127.480469 170.679688 127.332031 170.535156 C 127.179688 170.390625 127.0625 170.222656 126.976562 170.03125 C 126.890625 169.839844 126.847656 169.640625 126.839844 169.429688 C 126.832031 169.222656 126.867188 169.019531 126.9375 168.824219 L 127.066406 168.472656 C 127.140625 168.269531 127.253906 168.089844 127.402344 167.929688 C 127.554688 167.773438 127.726562 167.652344 127.925781 167.5625 C 128.128906 167.476562 128.335938 167.433594 128.554688 167.429688 C 128.769531 167.425781 128.980469 167.46875 129.183594 167.550781 Z M 150.84375 176.582031 " fill-opacity="1" fill-rule="nonzero"/><path fill="#723f2e" d="M 190.96875 271.09375 C 189.269531 271.09375 187.566406 271.039062 185.867188 270.933594 C 184.167969 270.824219 182.472656 270.667969 180.78125 270.457031 C 179.09375 270.246094 177.410156 269.984375 175.734375 269.671875 C 174.0625 269.359375 172.398438 268.992188 170.746094 268.578125 C 169.097656 268.164062 167.457031 267.695312 165.835938 267.179688 C 164.210938 266.664062 162.605469 266.101562 161.019531 265.484375 C 159.429688 264.871094 157.863281 264.210938 156.3125 263.5 C 154.765625 262.789062 153.242188 262.03125 151.738281 261.226562 C 150.238281 260.425781 148.761719 259.574219 147.3125 258.679688 C 145.863281 257.785156 144.441406 256.847656 143.050781 255.867188 C 141.660156 254.886719 140.296875 253.863281 138.96875 252.800781 C 137.640625 251.734375 136.34375 250.628906 135.082031 249.484375 C 133.820312 248.34375 132.597656 247.160156 131.40625 245.941406 C 130.21875 244.722656 129.066406 243.46875 127.953125 242.175781 C 126.84375 240.886719 125.769531 239.566406 124.738281 238.210938 C 123.707031 236.855469 122.71875 235.46875 121.773438 234.054688 C 120.828125 232.636719 119.925781 231.195312 119.066406 229.722656 C 118.210938 228.25 117.398438 226.753906 116.632812 225.234375 C 115.867188 223.710938 115.148438 222.167969 114.476562 220.605469 C 113.804688 219.039062 113.179688 217.457031 112.605469 215.851562 C 112.03125 214.25 111.507812 212.628906 111.03125 210.992188 C 110.558594 209.359375 110.132812 207.710938 109.757812 206.046875 C 109.382812 204.386719 109.0625 202.714844 108.789062 201.035156 C 108.519531 199.351562 108.296875 197.664062 108.128906 195.96875 C 107.960938 194.277344 107.84375 192.578125 107.78125 190.875 C 107.71875 189.171875 107.707031 187.472656 107.746094 185.769531 C 107.785156 184.066406 107.878906 182.367188 108.023438 180.667969 C 108.167969 178.972656 108.363281 177.28125 108.609375 175.597656 C 108.859375 173.910156 109.160156 172.234375 109.507812 170.570312 C 109.859375 168.902344 110.261719 167.25 110.714844 165.605469 C 111.164062 163.964844 111.667969 162.339844 112.21875 160.726562 C 112.769531 159.117188 113.371094 157.523438 114.019531 155.949219 C 114.671875 154.375 115.367188 152.820312 116.113281 151.289062 C 116.855469 149.757812 117.648438 148.25 118.484375 146.765625 C 119.320312 145.285156 120.203125 143.828125 121.128906 142.398438 C 122.054688 140.96875 123.023438 139.570312 124.039062 138.199219 C 125.050781 136.832031 126.101562 135.492188 127.195312 134.1875 C 128.289062 132.882812 129.421875 131.613281 130.59375 130.375 C 131.765625 129.140625 132.976562 127.941406 134.222656 126.78125 C 135.464844 125.617188 136.746094 124.496094 138.058594 123.414062 C 139.375 122.332031 140.71875 121.289062 142.097656 120.289062 C 143.476562 119.285156 144.882812 118.328125 146.320312 117.414062 C 147.757812 116.5 149.222656 115.628906 150.710938 114.804688 C 152.199219 113.980469 153.714844 113.203125 155.253906 112.46875 C 156.789062 111.738281 158.347656 111.054688 159.929688 110.417969 C 161.507812 109.78125 163.105469 109.195312 164.722656 108.65625 C 166.335938 108.117188 167.96875 107.628906 169.613281 107.191406 C 171.257812 106.75 172.917969 106.363281 174.585938 106.027344 C 176.253906 105.6875 177.933594 105.402344 179.621094 105.167969 C 181.308594 104.933594 183 104.753906 184.699219 104.621094 C 186.394531 104.492188 188.097656 104.414062 189.800781 104.386719 C 191.503906 104.363281 193.203125 104.386719 194.90625 104.464844 C 196.605469 104.542969 198.304688 104.675781 199.996094 104.855469 C 201.691406 105.039062 203.375 105.273438 205.054688 105.558594 C 206.734375 105.84375 208.402344 106.179688 210.0625 106.566406 C 211.71875 106.957031 213.363281 107.394531 214.996094 107.882812 C 216.628906 108.371094 218.242188 108.910156 219.839844 109.496094 C 221.441406 110.085938 223.019531 110.71875 224.578125 111.40625 C 226.136719 112.089844 227.675781 112.820312 229.191406 113.597656 C 230.703125 114.378906 232.195312 115.203125 233.65625 116.070312 C 235.121094 116.941406 236.558594 117.855469 237.964844 118.8125 C 239.375 119.769531 240.753906 120.769531 242.097656 121.8125 C 243.445312 122.855469 244.757812 123.9375 246.039062 125.0625 C 247.320312 126.183594 248.566406 127.34375 249.773438 128.542969 C 250.984375 129.742188 252.15625 130.976562 253.289062 132.25 C 254.421875 133.519531 255.515625 134.824219 256.570312 136.164062 C 257.625 137.5 258.636719 138.871094 259.605469 140.269531 C 260.574219 141.667969 261.5 143.097656 262.382812 144.554688 C 263.265625 146.011719 264.101562 147.492188 264.894531 149 C 265.683594 150.511719 266.429688 152.039062 267.128906 153.59375 C 267.824219 155.148438 268.472656 156.722656 269.074219 158.316406 C 269.675781 159.910156 270.226562 161.519531 270.730469 163.144531 C 271.234375 164.773438 271.683594 166.414062 272.085938 168.070312 C 272.488281 169.726562 272.839844 171.390625 273.140625 173.066406 C 273.4375 174.742188 273.6875 176.425781 273.882812 178.117188 C 274.078125 179.8125 274.222656 181.507812 274.316406 183.207031 C 274.410156 184.90625 274.449219 186.609375 274.4375 188.3125 C 274.425781 190.015625 274.363281 191.71875 274.246094 193.417969 C 274.128906 195.113281 273.960938 196.808594 273.742188 198.496094 C 273.523438 200.1875 273.25 201.867188 272.929688 203.539062 C 272.605469 205.210938 272.230469 206.871094 271.808594 208.523438 C 271.382812 210.171875 270.90625 211.804688 270.382812 213.425781 C 269.859375 215.046875 269.285156 216.648438 268.660156 218.234375 C 268.039062 219.820312 267.367188 221.382812 266.648438 222.925781 C 265.929688 224.472656 265.164062 225.992188 264.351562 227.488281 C 263.539062 228.984375 262.683594 230.457031 261.78125 231.898438 C 260.878906 233.34375 259.933594 234.761719 258.941406 236.144531 C 257.953125 237.53125 256.921875 238.886719 255.851562 240.210938 C 254.777344 241.535156 253.667969 242.824219 252.515625 244.078125 C 251.367188 245.332031 250.175781 246.550781 248.949219 247.734375 C 247.726562 248.917969 246.464844 250.0625 245.167969 251.164062 C 243.871094 252.269531 242.542969 253.335938 241.183594 254.359375 C 239.820312 255.382812 238.429688 256.363281 237.007812 257.300781 C 235.589844 258.238281 234.140625 259.132812 232.664062 259.984375 C 231.1875 260.832031 229.6875 261.636719 228.160156 262.394531 C 226.636719 263.152344 225.089844 263.863281 223.519531 264.523438 C 218.371094 266.703125 213.058594 268.347656 207.578125 269.453125 C 202.097656 270.558594 196.5625 271.105469 190.96875 271.09375 Z M 190.96875 106.78125 C 189.328125 106.78125 187.683594 106.835938 186.042969 106.9375 C 184.40625 107.039062 182.769531 107.191406 181.136719 107.394531 C 179.507812 107.597656 177.882812 107.851562 176.269531 108.152344 C 174.652344 108.453125 173.046875 108.804688 171.453125 109.207031 C 169.859375 109.605469 168.277344 110.054688 166.710938 110.554688 C 165.144531 111.050781 163.597656 111.59375 162.0625 112.1875 C 160.53125 112.78125 159.015625 113.417969 157.523438 114.105469 C 156.027344 114.789062 154.558594 115.519531 153.109375 116.292969 C 151.660156 117.070312 150.234375 117.890625 148.835938 118.75 C 147.4375 119.613281 146.066406 120.519531 144.722656 121.464844 C 143.378906 122.410156 142.066406 123.398438 140.78125 124.425781 C 139.5 125.453125 138.25 126.519531 137.03125 127.621094 C 135.8125 128.726562 134.628906 129.867188 133.480469 131.042969 C 132.335938 132.21875 131.222656 133.429688 130.148438 134.671875 C 129.074219 135.917969 128.042969 137.195312 127.046875 138.503906 C 126.050781 139.808594 125.09375 141.148438 124.183594 142.511719 C 123.269531 143.878906 122.398438 145.273438 121.570312 146.691406 C 120.742188 148.113281 119.957031 149.554688 119.21875 151.023438 C 118.476562 152.492188 117.785156 153.980469 117.136719 155.488281 C 116.488281 157 115.886719 158.527344 115.332031 160.074219 C 114.777344 161.625 114.269531 163.1875 113.808594 164.765625 C 113.351562 166.34375 112.941406 167.933594 112.578125 169.535156 C 112.21875 171.140625 111.90625 172.753906 111.644531 174.375 C 111.382812 175.996094 111.167969 177.625 111.003906 179.261719 C 110.84375 180.898438 110.730469 182.535156 110.667969 184.179688 C 110.605469 185.820312 110.59375 187.464844 110.632812 189.105469 C 110.671875 190.75 110.757812 192.390625 110.898438 194.027344 C 111.035156 195.667969 111.226562 197.296875 111.464844 198.925781 C 111.703125 200.550781 111.992188 202.167969 112.332031 203.777344 C 112.667969 205.382812 113.054688 206.980469 113.492188 208.566406 C 113.925781 210.148438 114.410156 211.71875 114.945312 213.273438 C 115.476562 214.832031 116.054688 216.367188 116.679688 217.886719 C 117.308594 219.40625 117.980469 220.90625 118.699219 222.382812 C 119.417969 223.863281 120.179688 225.316406 120.988281 226.75 C 121.792969 228.179688 122.644531 229.585938 123.539062 230.964844 C 124.429688 232.34375 125.367188 233.695312 126.34375 235.019531 C 127.320312 236.339844 128.335938 237.632812 129.390625 238.890625 C 130.445312 240.152344 131.539062 241.378906 132.667969 242.570312 C 133.800781 243.761719 134.964844 244.921875 136.167969 246.042969 C 137.371094 247.164062 138.605469 248.246094 139.871094 249.292969 C 141.140625 250.339844 142.4375 251.34375 143.769531 252.308594 C 145.097656 253.277344 146.457031 254.199219 147.84375 255.082031 C 149.230469 255.964844 150.640625 256.804688 152.078125 257.601562 C 153.515625 258.398438 154.976562 259.152344 156.460938 259.855469 C 157.945312 260.5625 159.449219 261.226562 160.972656 261.839844 C 162.496094 262.453125 164.039062 263.019531 165.597656 263.542969 C 167.15625 264.0625 168.730469 264.535156 170.320312 264.957031 C 171.90625 265.382812 173.507812 265.753906 175.117188 266.082031 C 176.726562 266.40625 178.347656 266.683594 179.976562 266.910156 C 181.605469 267.136719 183.238281 267.3125 184.875 267.4375 C 186.515625 267.566406 188.15625 267.640625 189.800781 267.667969 C 191.441406 267.691406 193.085938 267.667969 194.726562 267.59375 C 196.367188 267.519531 198.007812 267.394531 199.640625 267.21875 C 201.273438 267.042969 202.902344 266.816406 204.523438 266.542969 C 206.144531 266.265625 207.753906 265.941406 209.355469 265.570312 C 210.953125 265.195312 212.542969 264.773438 214.117188 264.300781 C 215.691406 263.828125 217.25 263.3125 218.792969 262.746094 C 220.335938 262.179688 221.859375 261.566406 223.363281 260.90625 C 224.871094 260.246094 226.355469 259.539062 227.816406 258.789062 C 229.277344 258.035156 230.714844 257.242188 232.128906 256.402344 C 233.542969 255.5625 234.929688 254.683594 236.289062 253.757812 C 237.644531 252.835938 238.976562 251.871094 240.277344 250.863281 C 241.578125 249.859375 242.84375 248.8125 244.082031 247.730469 C 245.316406 246.648438 246.519531 245.527344 247.6875 244.371094 C 248.851562 243.214844 249.984375 242.023438 251.078125 240.796875 C 252.171875 239.570312 253.230469 238.3125 254.246094 237.019531 C 255.261719 235.730469 256.238281 234.40625 257.175781 233.058594 C 258.113281 231.707031 259.007812 230.328125 259.859375 228.921875 C 260.710938 227.515625 261.519531 226.085938 262.28125 224.632812 C 263.046875 223.175781 263.765625 221.699219 264.4375 220.199219 C 265.113281 218.699219 265.738281 217.183594 266.320312 215.644531 C 266.902344 214.105469 267.433594 212.554688 267.917969 210.984375 C 268.402344 209.414062 268.839844 207.828125 269.230469 206.230469 C 269.617188 204.636719 269.957031 203.027344 270.246094 201.410156 C 270.535156 199.792969 270.777344 198.167969 270.964844 196.535156 C 271.15625 194.902344 271.296875 193.265625 271.386719 191.625 C 271.476562 189.984375 271.515625 188.339844 271.503906 186.695312 C 271.492188 185.054688 271.433594 183.410156 271.320312 181.773438 C 271.210938 180.132812 271.046875 178.496094 270.835938 176.867188 C 270.625 175.238281 270.363281 173.617188 270.050781 172 C 269.742188 170.386719 269.378906 168.785156 268.972656 167.191406 C 268.5625 165.601562 268.105469 164.023438 267.597656 162.460938 C 267.09375 160.894531 266.539062 159.347656 265.9375 157.820312 C 265.335938 156.289062 264.691406 154.78125 263.996094 153.289062 C 263.304688 151.800781 262.566406 150.332031 261.78125 148.886719 C 260.996094 147.441406 260.171875 146.023438 259.300781 144.628906 C 258.429688 143.234375 257.519531 141.867188 256.5625 140.53125 C 255.609375 139.191406 254.617188 137.882812 253.582031 136.605469 C 252.546875 135.328125 251.476562 134.085938 250.363281 132.871094 C 249.253906 131.660156 248.109375 130.484375 246.925781 129.34375 C 245.742188 128.203125 244.527344 127.097656 243.277344 126.03125 C 242.023438 124.964844 240.742188 123.9375 239.429688 122.949219 C 238.117188 121.960938 236.773438 121.011719 235.402344 120.105469 C 234.03125 119.199219 232.632812 118.335938 231.210938 117.515625 C 229.785156 116.695312 228.335938 115.921875 226.867188 115.1875 C 225.394531 114.457031 223.902344 113.773438 222.386719 113.132812 C 217.417969 111.027344 212.289062 109.441406 207 108.371094 C 201.710938 107.300781 196.367188 106.769531 190.96875 106.78125 Z M 190.96875 106.78125 " fill-opacity="1" fill-rule="nonzero"/><path fill="#723f2e" d="M 190.96875 301.640625 C 187.710938 301.640625 184.453125 301.496094 181.203125 301.214844 C 177.957031 300.933594 174.722656 300.515625 171.511719 299.957031 C 168.296875 299.398438 165.113281 298.703125 161.960938 297.875 C 158.808594 297.042969 155.695312 296.078125 152.625 294.980469 C 149.550781 293.882812 146.535156 292.65625 143.566406 291.300781 C 140.601562 289.941406 137.699219 288.460938 134.859375 286.855469 C 132.019531 285.253906 129.257812 283.527344 126.566406 281.6875 C 123.875 279.84375 121.265625 277.890625 118.742188 275.824219 C 116.21875 273.761719 113.785156 271.589844 111.449219 269.316406 C 109.109375 267.042969 106.875 264.671875 104.738281 262.207031 C 102.605469 259.742188 100.578125 257.191406 98.664062 254.550781 C 96.746094 251.914062 94.945312 249.195312 93.261719 246.402344 C 91.578125 243.609375 90.015625 240.75 88.578125 237.824219 C 87.140625 234.894531 85.828125 231.914062 84.648438 228.875 C 83.464844 225.835938 82.414062 222.75 81.496094 219.621094 C 80.574219 216.492188 79.792969 213.328125 79.144531 210.132812 C 78.496094 206.9375 77.988281 203.71875 77.617188 200.476562 C 77.246094 197.238281 77.011719 193.988281 76.917969 190.726562 C 76.824219 187.46875 76.871094 184.210938 77.058594 180.953125 C 77.242188 177.695312 77.566406 174.453125 78.03125 171.226562 C 78.496094 168 79.09375 164.796875 79.832031 161.621094 C 80.570312 158.441406 81.445312 155.304688 82.453125 152.199219 C 83.457031 149.097656 84.597656 146.046875 85.863281 143.042969 C 87.132812 140.035156 88.527344 137.09375 90.050781 134.207031 C 91.570312 131.324219 93.210938 128.507812 94.972656 125.761719 C 96.738281 123.019531 98.613281 120.355469 100.601562 117.773438 C 102.59375 115.1875 104.691406 112.695312 106.894531 110.289062 C 109.097656 107.886719 111.402344 105.582031 113.804688 103.375 C 116.207031 101.167969 118.695312 99.070312 121.277344 97.074219 C 123.859375 95.082031 126.523438 93.203125 129.265625 91.4375 C 132.007812 89.675781 134.820312 88.03125 137.703125 86.507812 C 140.585938 84.980469 143.53125 83.585938 146.535156 82.3125 C 148.253906 81.585938 149.992188 80.902344 151.75 80.261719 C 153.503906 79.621094 155.273438 79.023438 157.058594 78.46875 C 158.839844 77.914062 160.636719 77.402344 162.449219 76.9375 C 164.257812 76.472656 166.078125 76.050781 167.90625 75.671875 C 169.738281 75.296875 171.574219 74.964844 173.421875 74.679688 C 175.269531 74.390625 177.121094 74.152344 178.976562 73.957031 C 180.835938 73.761719 182.699219 73.609375 184.5625 73.503906 C 186.429688 73.402344 188.296875 73.34375 190.164062 73.332031 C 192.03125 73.316406 193.898438 73.351562 195.765625 73.429688 C 197.632812 73.507812 199.496094 73.632812 201.359375 73.804688 C 203.21875 73.976562 205.074219 74.191406 206.925781 74.453125 C 208.773438 74.714844 210.617188 75.023438 212.453125 75.375 C 214.285156 75.726562 216.113281 76.121094 217.925781 76.5625 C 219.742188 77.007812 221.546875 77.492188 223.335938 78.023438 C 225.128906 78.550781 226.90625 79.125 228.671875 79.742188 C 230.433594 80.359375 232.179688 81.019531 233.910156 81.726562 C 235.644531 82.429688 237.355469 83.171875 239.050781 83.960938 C 240.746094 84.746094 242.417969 85.574219 244.074219 86.445312 C 245.726562 87.316406 247.359375 88.226562 248.964844 89.175781 C 250.574219 90.125 252.160156 91.113281 253.722656 92.140625 C 255.28125 93.167969 256.816406 94.230469 258.324219 95.335938 C 259.832031 96.4375 261.3125 97.578125 262.765625 98.75 C 264.21875 99.925781 265.640625 101.136719 267.035156 102.382812 C 268.425781 103.628906 269.789062 104.90625 271.117188 106.21875 C 272.449219 107.53125 273.746094 108.875 275.011719 110.25 C 276.273438 111.625 277.503906 113.03125 278.699219 114.46875 C 279.894531 115.902344 281.054688 117.367188 282.179688 118.859375 C 283.300781 120.355469 284.386719 121.875 285.4375 123.417969 C 286.484375 124.964844 287.496094 126.539062 288.46875 128.132812 C 289.4375 129.730469 290.371094 131.347656 291.261719 132.988281 C 292.15625 134.632812 293.007812 136.292969 293.816406 137.976562 C 294.628906 139.660156 295.398438 141.363281 296.125 143.082031 C 296.851562 144.804688 297.535156 146.542969 298.175781 148.296875 C 298.820312 150.050781 299.417969 151.820312 299.972656 153.605469 C 300.527344 155.390625 301.039062 157.1875 301.503906 158.996094 C 301.972656 160.804688 302.394531 162.625 302.769531 164.453125 C 303.148438 166.285156 303.480469 168.121094 303.765625 169.96875 C 304.054688 171.816406 304.296875 173.667969 304.492188 175.523438 C 304.6875 177.382812 304.839844 179.246094 304.945312 181.109375 C 305.050781 182.976562 305.109375 184.84375 305.121094 186.710938 C 305.132812 188.578125 305.101562 190.445312 305.023438 192.3125 C 304.945312 194.179688 304.820312 196.042969 304.652344 197.90625 C 304.480469 199.765625 304.265625 201.621094 304.003906 203.472656 C 303.742188 205.320312 303.4375 207.164062 303.085938 209 C 302.734375 210.832031 302.339844 212.660156 301.898438 214.476562 C 301.457031 216.289062 300.972656 218.09375 300.441406 219.886719 C 299.910156 221.679688 299.339844 223.457031 298.722656 225.21875 C 298.105469 226.984375 297.445312 228.730469 296.742188 230.460938 C 296.039062 232.191406 295.296875 233.90625 294.507812 235.601562 C 293.722656 237.296875 292.894531 238.96875 292.023438 240.625 C 291.15625 242.277344 290.246094 243.910156 289.296875 245.519531 C 288.347656 247.128906 287.359375 248.714844 286.335938 250.273438 C 285.308594 251.835938 284.242188 253.371094 283.140625 254.878906 C 282.039062 256.386719 280.898438 257.867188 279.726562 259.320312 C 278.550781 260.773438 277.339844 262.199219 276.097656 263.589844 C 274.851562 264.984375 273.574219 266.347656 272.261719 267.675781 C 270.949219 269.007812 269.605469 270.304688 268.230469 271.570312 C 266.855469 272.835938 265.449219 274.066406 264.015625 275.261719 C 262.578125 276.457031 261.117188 277.617188 259.621094 278.742188 C 258.128906 279.863281 256.609375 280.953125 255.066406 282 C 253.519531 283.050781 251.949219 284.0625 250.351562 285.03125 C 248.757812 286.003906 247.140625 286.9375 245.496094 287.832031 C 243.855469 288.722656 242.195312 289.574219 240.511719 290.386719 C 238.828125 291.199219 237.125 291.96875 235.40625 292.695312 C 228.375 295.664062 221.121094 297.902344 213.640625 299.410156 C 206.15625 300.917969 198.601562 301.660156 190.96875 301.640625 Z M 190.96875 77.265625 C 187.820312 77.269531 184.675781 77.402344 181.539062 77.675781 C 178.402344 77.945312 175.28125 78.347656 172.175781 78.886719 C 169.074219 79.425781 165.996094 80.09375 162.953125 80.898438 C 159.90625 81.699219 156.898438 82.628906 153.933594 83.6875 C 150.96875 84.75 148.050781 85.933594 145.1875 87.242188 C 142.320312 88.550781 139.519531 89.980469 136.777344 91.53125 C 134.035156 93.078125 131.363281 94.742188 128.761719 96.523438 C 126.164062 98.300781 123.644531 100.1875 121.207031 102.183594 C 118.769531 104.175781 116.421875 106.269531 114.160156 108.464844 C 111.902344 110.664062 109.742188 112.949219 107.679688 115.332031 C 105.617188 117.710938 103.660156 120.175781 101.8125 122.726562 C 99.960938 125.273438 98.222656 127.898438 96.59375 130.59375 C 94.96875 133.292969 93.460938 136.054688 92.070312 138.882812 C 90.683594 141.707031 89.417969 144.589844 88.273438 147.523438 C 87.132812 150.460938 86.117188 153.4375 85.230469 156.460938 C 84.339844 159.484375 83.585938 162.539062 82.960938 165.625 C 82.335938 168.710938 81.84375 171.820312 81.484375 174.949219 C 81.125 178.078125 80.898438 181.21875 80.808594 184.367188 C 80.71875 187.515625 80.765625 190.660156 80.945312 193.804688 C 81.125 196.949219 81.4375 200.082031 81.886719 203.199219 C 82.335938 206.316406 82.914062 209.410156 83.628906 212.476562 C 84.339844 215.546875 85.183594 218.578125 86.15625 221.574219 C 87.132812 224.570312 88.230469 227.519531 89.457031 230.417969 C 90.683594 233.320312 92.03125 236.164062 93.5 238.949219 C 94.96875 241.738281 96.554688 244.453125 98.257812 247.105469 C 99.960938 249.753906 101.773438 252.328125 103.695312 254.820312 C 105.617188 257.316406 107.644531 259.722656 109.773438 262.046875 C 111.902344 264.367188 114.128906 266.59375 116.449219 268.722656 C 118.769531 270.851562 121.175781 272.878906 123.667969 274.804688 C 126.164062 276.726562 128.734375 278.542969 131.382812 280.246094 C 134.035156 281.949219 136.75 283.535156 139.535156 285.007812 C 142.320312 286.476562 145.164062 287.828125 148.066406 289.054688 C 149.726562 289.746094 151.402344 290.398438 153.09375 291.007812 C 154.789062 291.617188 156.492188 292.1875 158.214844 292.714844 C 159.933594 293.238281 161.664062 293.722656 163.410156 294.164062 C 165.152344 294.609375 166.90625 295.007812 168.667969 295.363281 C 170.433594 295.71875 172.203125 296.03125 173.984375 296.300781 C 175.761719 296.570312 177.546875 296.796875 179.335938 296.980469 C 181.125 297.160156 182.917969 297.300781 184.714844 297.394531 C 186.511719 297.488281 188.308594 297.539062 190.109375 297.542969 C 191.90625 297.550781 193.703125 297.511719 195.5 297.429688 C 197.296875 297.347656 199.09375 297.222656 200.882812 297.054688 C 202.675781 296.886719 204.460938 296.671875 206.242188 296.414062 C 208.019531 296.15625 209.792969 295.859375 211.558594 295.515625 C 213.324219 295.171875 215.082031 294.785156 216.828125 294.355469 C 218.574219 293.925781 220.3125 293.453125 222.035156 292.9375 C 223.757812 292.421875 225.46875 291.867188 227.164062 291.269531 C 228.863281 290.667969 230.542969 290.03125 232.207031 289.347656 C 233.871094 288.667969 235.519531 287.949219 237.148438 287.1875 C 238.78125 286.425781 240.390625 285.625 241.980469 284.785156 C 243.570312 283.945312 245.140625 283.066406 246.6875 282.148438 C 248.238281 281.230469 249.761719 280.277344 251.261719 279.285156 C 252.761719 278.292969 254.238281 277.265625 255.691406 276.203125 C 257.140625 275.140625 258.5625 274.039062 259.960938 272.90625 C 261.359375 271.773438 262.726562 270.605469 264.066406 269.40625 C 265.40625 268.207031 266.714844 266.972656 267.996094 265.707031 C 269.273438 264.445312 270.523438 263.148438 271.738281 261.824219 C 272.953125 260.496094 274.136719 259.144531 275.285156 257.757812 C 276.4375 256.375 277.550781 254.964844 278.632812 253.527344 C 279.714844 252.089844 280.757812 250.625 281.765625 249.136719 C 282.777344 247.648438 283.746094 246.132812 284.683594 244.597656 C 285.617188 243.058594 286.515625 241.5 287.375 239.921875 C 288.230469 238.339844 289.050781 236.738281 289.832031 235.117188 C 290.613281 233.496094 291.351562 231.859375 292.050781 230.199219 C 292.753906 228.542969 293.410156 226.871094 294.03125 225.179688 C 294.648438 223.492188 295.222656 221.789062 295.757812 220.070312 C 296.292969 218.351562 296.785156 216.625 297.238281 214.882812 C 297.6875 213.140625 298.09375 211.386719 298.457031 209.625 C 298.824219 207.863281 299.144531 206.09375 299.421875 204.316406 C 299.699219 202.539062 299.933594 200.757812 300.125 198.96875 C 300.3125 197.179688 300.460938 195.386719 300.5625 193.589844 C 300.664062 191.796875 300.726562 190 300.738281 188.199219 C 300.753906 186.402344 300.726562 184.601562 300.652344 182.804688 C 300.578125 181.007812 300.460938 179.210938 300.300781 177.421875 C 300.140625 175.628906 299.933594 173.84375 299.683594 172.0625 C 299.4375 170.28125 299.144531 168.503906 298.808594 166.738281 C 298.472656 164.96875 298.09375 163.210938 297.671875 161.464844 C 297.253906 159.714844 296.789062 157.976562 296.28125 156.25 C 295.773438 154.523438 295.226562 152.8125 294.636719 151.113281 C 294.046875 149.414062 293.414062 147.730469 292.742188 146.0625 C 292.066406 144.394531 291.355469 142.742188 290.601562 141.109375 C 289.847656 139.476562 289.054688 137.859375 288.222656 136.265625 C 287.390625 134.671875 286.519531 133.097656 285.609375 131.546875 C 284.699219 129.996094 283.75 128.464844 282.765625 126.960938 C 281.78125 125.453125 280.761719 123.972656 279.703125 122.519531 C 278.648438 121.0625 277.554688 119.632812 276.429688 118.230469 C 275.300781 116.828125 274.140625 115.457031 272.945312 114.109375 C 271.753906 112.765625 270.527344 111.449219 269.269531 110.164062 C 268.007812 108.878906 266.71875 107.625 265.398438 106.402344 C 264.082031 105.179688 262.730469 103.992188 261.351562 102.835938 C 259.976562 101.679688 258.570312 100.558594 257.136719 99.46875 C 255.703125 98.382812 254.246094 97.332031 252.757812 96.316406 C 251.273438 95.296875 249.765625 94.320312 248.234375 93.378906 C 246.703125 92.433594 245.148438 91.53125 243.570312 90.664062 C 241.992188 89.800781 240.398438 88.972656 238.777344 88.183594 C 237.160156 87.398438 235.527344 86.648438 233.871094 85.941406 C 227.085938 83.066406 220.082031 80.902344 212.859375 79.445312 C 205.636719 77.984375 198.339844 77.261719 190.96875 77.277344 Z M 190.96875 77.265625 " fill-opacity="1" fill-rule="nonzero"/><path fill="#723f2e" d="M 190.96875 266.410156 C 189.464844 266.410156 187.957031 266.367188 186.453125 266.28125 C 184.949219 266.195312 183.449219 266.0625 181.953125 265.890625 C 180.453125 265.71875 178.964844 265.503906 177.480469 265.246094 C 175.996094 264.988281 174.519531 264.691406 173.050781 264.347656 C 171.582031 264.007812 170.128906 263.621094 168.683594 263.195312 C 167.234375 262.769531 165.804688 262.304688 164.386719 261.796875 C 162.964844 261.289062 161.5625 260.742188 160.175781 260.152344 C 158.789062 259.566406 157.417969 258.9375 156.066406 258.273438 C 154.714844 257.605469 153.386719 256.902344 152.074219 256.15625 C 150.761719 255.414062 149.472656 254.636719 148.207031 253.820312 C 146.941406 253.003906 145.699219 252.152344 144.480469 251.261719 C 143.265625 250.375 142.074219 249.453125 140.90625 248.496094 C 139.742188 247.542969 138.605469 246.554688 137.5 245.53125 C 136.390625 244.511719 135.3125 243.460938 134.265625 242.375 C 133.214844 241.292969 132.199219 240.183594 131.214844 239.042969 C 130.230469 237.898438 129.28125 236.730469 128.363281 235.535156 C 127.445312 234.339844 126.5625 233.121094 125.714844 231.875 C 124.867188 230.628906 124.058594 229.359375 123.285156 228.066406 C 122.507812 226.773438 121.773438 225.460938 121.070312 224.125 C 120.371094 222.792969 119.710938 221.4375 119.089844 220.066406 C 118.46875 218.691406 117.886719 217.304688 117.34375 215.898438 C 116.800781 214.492188 116.300781 213.070312 115.839844 211.636719 C 115.378906 210.203125 114.957031 208.757812 114.582031 207.296875 C 114.203125 205.839844 113.867188 204.371094 113.570312 202.894531 C 113.277344 201.414062 113.027344 199.929688 112.816406 198.4375 C 112.609375 196.945312 112.441406 195.449219 112.320312 193.945312 C 112.195312 192.445312 112.117188 190.941406 112.078125 189.433594 C 112.042969 187.925781 112.046875 186.421875 112.097656 184.914062 C 112.148438 183.410156 112.238281 181.90625 112.375 180.40625 C 112.511719 178.90625 112.6875 177.410156 112.910156 175.917969 C 113.128906 174.429688 113.394531 172.945312 113.699219 171.46875 C 114.007812 169.992188 114.355469 168.527344 114.742188 167.074219 C 115.132812 165.617188 115.566406 164.175781 116.039062 162.742188 C 116.511719 161.3125 117.023438 159.898438 117.578125 158.496094 C 118.132812 157.09375 118.722656 155.710938 119.359375 154.34375 C 119.992188 152.976562 120.664062 151.625 121.371094 150.296875 C 122.082031 148.96875 122.832031 147.660156 123.617188 146.375 C 124.402344 145.089844 125.222656 143.828125 126.078125 142.585938 C 126.9375 141.347656 127.828125 140.136719 128.757812 138.945312 C 129.683594 137.757812 130.644531 136.597656 131.636719 135.464844 C 132.632812 134.332031 133.65625 133.230469 134.714844 132.15625 C 135.769531 131.082031 136.855469 130.039062 137.972656 129.027344 C 139.089844 128.015625 140.234375 127.035156 141.40625 126.089844 C 142.578125 125.140625 143.777344 124.230469 145.003906 123.351562 C 146.226562 122.472656 147.476562 121.632812 148.75 120.828125 C 150.023438 120.019531 151.316406 119.25 152.632812 118.519531 C 153.953125 117.789062 155.289062 117.09375 156.644531 116.4375 C 158.003906 115.78125 159.375 115.167969 160.769531 114.589844 C 162.160156 114.011719 163.570312 113.476562 164.992188 112.980469 C 166.414062 112.484375 167.851562 112.03125 169.300781 111.617188 C 170.746094 111.203125 172.207031 110.832031 173.675781 110.5 C 175.148438 110.171875 176.625 109.882812 178.113281 109.636719 C 179.601562 109.390625 181.09375 109.1875 182.589844 109.027344 C 184.089844 108.867188 185.589844 108.75 187.09375 108.679688 C 188.601562 108.605469 190.105469 108.574219 191.613281 108.585938 C 193.121094 108.597656 194.625 108.652344 196.128906 108.75 C 197.632812 108.851562 199.132812 108.992188 200.628906 109.175781 C 202.121094 109.359375 203.613281 109.585938 205.09375 109.859375 C 206.578125 110.128906 208.050781 110.4375 209.515625 110.792969 C 210.980469 111.148438 212.433594 111.542969 213.875 111.980469 C 215.316406 112.417969 216.746094 112.894531 218.160156 113.414062 C 219.574219 113.933594 220.972656 114.492188 222.355469 115.09375 C 223.738281 115.691406 225.101562 116.332031 226.449219 117.007812 C 227.792969 117.6875 229.121094 118.402344 230.425781 119.15625 C 231.730469 119.910156 233.011719 120.699219 234.269531 121.523438 C 235.53125 122.351562 236.765625 123.214844 237.976562 124.113281 C 239.1875 125.007812 240.371094 125.941406 241.527344 126.90625 C 242.683594 127.871094 243.8125 128.871094 244.914062 129.898438 C 246.011719 130.929688 247.082031 131.992188 248.121094 133.082031 C 249.160156 134.171875 250.167969 135.292969 251.140625 136.441406 C 252.117188 137.589844 253.058594 138.765625 253.964844 139.96875 C 254.871094 141.171875 255.746094 142.402344 256.582031 143.652344 C 257.417969 144.90625 258.21875 146.183594 258.984375 147.480469 C 259.746094 148.78125 260.472656 150.101562 261.164062 151.441406 C 261.851562 152.78125 262.5 154.140625 263.113281 155.515625 C 263.722656 156.894531 264.292969 158.289062 264.824219 159.699219 C 265.355469 161.109375 265.84375 162.53125 266.292969 163.972656 C 266.742188 165.410156 267.148438 166.859375 267.515625 168.320312 C 267.882812 169.78125 268.207031 171.253906 268.488281 172.734375 C 268.769531 174.214844 269.007812 175.703125 269.207031 177.195312 C 269.402344 178.691406 269.558594 180.1875 269.667969 181.691406 C 269.777344 183.195312 269.847656 184.699219 269.871094 186.203125 C 269.894531 187.710938 269.878906 189.21875 269.816406 190.722656 C 269.753906 192.230469 269.648438 193.730469 269.5 195.230469 C 269.355469 196.730469 269.164062 198.222656 268.929688 199.714844 C 268.695312 201.203125 268.421875 202.683594 268.101562 204.15625 C 267.785156 205.628906 267.425781 207.089844 267.023438 208.542969 C 266.621094 209.996094 266.179688 211.433594 265.695312 212.863281 C 265.210938 214.289062 264.683594 215.699219 264.121094 217.097656 C 263.554688 218.492188 262.949219 219.875 262.304688 221.234375 C 261.660156 222.597656 260.976562 223.941406 260.257812 225.261719 C 259.535156 226.585938 258.777344 227.886719 257.980469 229.167969 C 257.1875 230.445312 256.355469 231.703125 255.488281 232.933594 C 254.617188 234.167969 253.714844 235.371094 252.78125 236.554688 C 251.84375 237.734375 250.875 238.886719 249.871094 240.011719 C 248.867188 241.136719 247.832031 242.230469 246.769531 243.296875 C 244.945312 245.128906 243.035156 246.867188 241.039062 248.511719 C 239.046875 250.15625 236.972656 251.699219 234.828125 253.136719 C 232.679688 254.578125 230.464844 255.90625 228.1875 257.125 C 225.90625 258.347656 223.574219 259.453125 221.183594 260.441406 C 218.796875 261.429688 216.363281 262.300781 213.890625 263.046875 C 211.414062 263.796875 208.910156 264.421875 206.375 264.921875 C 203.835938 265.425781 201.28125 265.800781 198.707031 266.046875 C 196.136719 266.296875 193.554688 266.414062 190.96875 266.410156 Z M 190.96875 109.507812 C 147.964844 109.507812 112.980469 144.492188 112.980469 187.496094 C 112.980469 230.5 147.964844 265.484375 190.96875 265.484375 C 233.976562 265.484375 268.945312 230.5 268.945312 187.496094 C 268.945312 144.492188 233.972656 109.519531 190.96875 109.519531 Z M 190.96875 109.507812 " fill-opacity="1" fill-rule="nonzero"/><g clip-path="url(#252fe25593)"><path fill="#723f2e" d="M 190.96875 62.945312 L 193.777344 74.171875 L 188.164062 74.171875 Z M 190.96875 62.945312 " fill-opacity="1" fill-rule="nonzero"/></g><g clip-path="url(#bdd954359a)"><path fill="#723f2e" d="M 190.96875 312.050781 L 188.164062 300.820312 L 193.777344 300.820312 Z M 190.96875 312.050781 " fill-opacity="1" fill-rule="nonzero"/></g><path fill="#723f2e" d="M 169.34375 64.835938 L 174.054688 75.410156 L 168.527344 76.382812 Z M 169.34375 64.835938 " fill-opacity="1" fill-rule="nonzero"/><path fill="#723f2e" d="M 212.597656 310.15625 L 207.882812 299.585938 L 213.410156 298.613281 Z M 212.597656 310.15625 " fill-opacity="1" fill-rule="nonzero"/><path fill="#723f2e" d="M 148.371094 70.457031 L 154.847656 80.046875 L 149.570312 81.96875 Z M 148.371094 70.457031 " fill-opacity="1" fill-rule="nonzero"/><path fill="#723f2e" d="M 233.566406 304.539062 L 227.089844 294.945312 L 232.367188 293.027344 Z M 233.566406 304.539062 " fill-opacity="1" fill-rule="nonzero"/><path fill="#723f2e" d="M 128.691406 79.632812 L 136.738281 87.953125 L 131.875 90.761719 Z M 128.691406 79.632812 " fill-opacity="1" fill-rule="nonzero"/><path fill="#723f2e" d="M 253.246094 295.363281 L 245.203125 287.042969 L 250.0625 284.234375 Z M 253.246094 295.363281 " fill-opacity="1" fill-rule="nonzero"/><path fill="#723f2e" d="M 110.910156 92.082031 L 120.277344 98.882812 L 115.976562 102.492188 Z M 110.910156 92.082031 " fill-opacity="1" fill-rule="nonzero"/><path fill="#723f2e" d="M 271.03125 282.910156 L 261.660156 276.113281 L 265.960938 272.503906 Z M 271.03125 282.910156 " fill-opacity="1" fill-rule="nonzero"/><path fill="#723f2e" d="M 95.558594 107.4375 L 105.964844 112.503906 L 102.355469 116.804688 Z M 95.558594 107.4375 " fill-opacity="1" fill-rule="nonzero"/><path fill="#723f2e" d="M 286.378906 267.558594 L 275.976562 262.488281 L 279.585938 258.191406 Z M 286.378906 267.558594 " fill-opacity="1" fill-rule="nonzero"/><path fill="#723f2e" d="M 83.105469 125.21875 L 94.230469 128.402344 L 91.425781 133.265625 Z M 83.105469 125.21875 " fill-opacity="1" fill-rule="nonzero"/><path fill="#723f2e" d="M 298.835938 249.773438 L 287.707031 246.589844 L 290.515625 241.730469 Z M 298.835938 249.773438 " fill-opacity="1" fill-rule="nonzero"/><path fill="#723f2e" d="M 73.929688 144.898438 L 85.441406 146.101562 L 83.519531 151.375 Z M 73.929688 144.898438 " fill-opacity="1" fill-rule="nonzero"/><path fill="#723f2e" d="M 308.007812 230.097656 L 296.496094 228.894531 L 298.417969 223.617188 Z M 308.007812 230.097656 " fill-opacity="1" fill-rule="nonzero"/><path fill="#723f2e" d="M 68.308594 165.867188 L 79.855469 165.054688 L 78.878906 170.582031 Z M 68.308594 165.867188 " fill-opacity="1" fill-rule="nonzero"/><path fill="#723f2e" d="M 313.628906 209.125 L 302.085938 209.9375 L 303.058594 204.410156 Z M 313.628906 209.125 " fill-opacity="1" fill-rule="nonzero"/><path fill="#723f2e" d="M 66.417969 187.496094 L 77.644531 184.691406 L 77.644531 190.304688 Z M 66.417969 187.496094 " fill-opacity="1" fill-rule="nonzero"/><path fill="#723f2e" d="M 315.523438 187.496094 L 304.292969 190.304688 L 304.292969 184.691406 Z M 315.523438 187.496094 " fill-opacity="1" fill-rule="nonzero"/><path fill="#723f2e" d="M 68.308594 209.125 L 78.878906 204.410156 L 79.855469 209.9375 Z M 68.308594 209.125 " fill-opacity="1" fill-rule="nonzero"/><path fill="#723f2e" d="M 313.628906 165.867188 L 303.058594 170.582031 L 302.085938 165.054688 Z M 313.628906 165.867188 " fill-opacity="1" fill-rule="nonzero"/><path fill="#723f2e" d="M 73.929688 230.097656 L 83.519531 223.617188 L 85.441406 228.894531 Z M 73.929688 230.097656 " fill-opacity="1" fill-rule="nonzero"/><path fill="#723f2e" d="M 308.007812 144.898438 L 298.417969 151.375 L 296.496094 146.101562 Z M 308.007812 144.898438 " fill-opacity="1" fill-rule="nonzero"/><path fill="#723f2e" d="M 83.105469 249.773438 L 91.425781 241.730469 L 94.230469 246.589844 Z M 83.105469 249.773438 " fill-opacity="1" fill-rule="nonzero"/><path fill="#723f2e" d="M 298.835938 125.21875 L 290.515625 133.265625 L 287.707031 128.402344 Z M 298.835938 125.21875 " fill-opacity="1" fill-rule="nonzero"/><path fill="#723f2e" d="M 95.558594 267.558594 L 102.355469 258.191406 L 105.964844 262.488281 Z M 95.558594 267.558594 " fill-opacity="1" fill-rule="nonzero"/><path fill="#723f2e" d="M 286.378906 107.4375 L 279.585938 116.804688 L 275.976562 112.503906 Z M 286.378906 107.4375 " fill-opacity="1" fill-rule="nonzero"/><path fill="#723f2e" d="M 110.910156 282.910156 L 115.976562 272.503906 L 120.277344 276.113281 Z M 110.910156 282.910156 " fill-opacity="1" fill-rule="nonzero"/><path fill="#723f2e" d="M 271.03125 92.082031 L 265.960938 102.492188 L 261.660156 98.882812 Z M 271.03125 92.082031 " fill-opacity="1" fill-rule="nonzero"/><path fill="#723f2e" d="M 128.691406 295.363281 L 131.875 284.234375 L 136.738281 287.042969 Z M 128.691406 295.363281 " fill-opacity="1" fill-rule="nonzero"/><path fill="#723f2e" d="M 253.246094 79.632812 L 250.0625 90.761719 L 245.203125 87.953125 Z M 253.246094 79.632812 " fill-opacity="1" fill-rule="nonzero"/><path fill="#723f2e" d="M 148.371094 304.539062 L 149.570312 293.027344 L 154.847656 294.945312 Z M 148.371094 304.539062 " fill-opacity="1" fill-rule="nonzero"/><path fill="#723f2e" d="M 233.566406 70.457031 L 232.367188 81.96875 L 227.089844 80.046875 Z M 233.566406 70.457031 " fill-opacity="1" fill-rule="nonzero"/><path fill="#723f2e" d="M 169.34375 310.15625 L 168.527344 298.613281 L 174.054688 299.585938 Z M 169.34375 310.15625 " fill-opacity="1" fill-rule="nonzero"/><path fill="#723f2e" d="M 212.597656 64.835938 L 213.410156 76.382812 L 207.882812 75.410156 Z M 212.597656 64.835938 " fill-opacity="1" fill-rule="nonzero"/><g clip-path="url(#5aaa9f67da)"><path fill="#723f2e" d="M 327.878906 307.582031 L 318.359375 278.242188 L 337.398438 257.21875 L 311.292969 248.140625 L 302.988281 265.261719 L 298.261719 290.125 L 286.625 298.589844 Z M 327.878906 307.582031 " fill-opacity="1" fill-rule="nonzero"/></g><g clip-path="url(#909943145e)"><path fill="#723f2e" d="M 70.644531 248.140625 L 44.539062 257.21875 L 63.59375 278.242188 L 54.066406 307.582031 L 95.320312 298.582031 L 83.675781 290.113281 L 83.675781 290.082031 C 188.355469 264.753906 298.265625 290.113281 298.265625 290.113281 L 308.320312 237.226562 C 181.914062 208.136719 74.023438 237.226562 74.023438 237.226562 L 80.925781 275.574219 L 78.960938 265.253906 Z M 70.644531 248.140625 " fill-opacity="1" fill-rule="nonzero"/></g><path fill="#723f2e" d="M 190.96875 280.980469 L 193.082031 285.261719 L 197.808594 285.945312 L 194.390625 289.28125 L 195.195312 293.984375 L 190.96875 291.761719 L 186.742188 293.984375 L 187.550781 289.28125 L 184.128906 285.945312 L 188.855469 285.261719 Z M 190.96875 280.980469 " fill-opacity="1" fill-rule="nonzero"/><g clip-path="url(#bca005b800)"><path fill="#723f2e" d="M 115.832031 208.378906 L 119.59375 210.648438 L 118.59375 206.367188 L 121.921875 203.488281 L 117.542969 203.117188 L 115.832031 199.078125 L 114.121094 203.117188 L 109.742188 203.488281 L 113.066406 206.367188 L 112.066406 210.648438 Z M 115.832031 208.378906 " fill-opacity="1" fill-rule="nonzero"/></g><g clip-path="url(#82ebb5fcef)"><path fill="#723f2e" d="M 259.265625 208.378906 L 263.027344 210.648438 L 262.03125 206.367188 L 265.355469 203.488281 L 260.976562 203.117188 L 259.265625 199.078125 L 257.554688 203.117188 L 253.175781 203.488281 L 256.5 206.367188 L 255.5 210.648438 Z M 259.265625 208.378906 " fill-opacity="1" fill-rule="nonzero"/></g><g fill="#ecdfcc" fill-opacity="1"><g transform="translate(111.346721, 265.149607)"><g><path d="M 4.96875 -11.328125 C 5.144531 -10.066406 5.363281 -8.976562 5.625 -8.0625 C 5.894531 -7.15625 6.285156 -6.476562 6.796875 -6.03125 C 7.304688 -5.582031 8.003906 -5.414062 8.890625 -5.53125 L 9.171875 -5.578125 C 10.117188 -5.703125 10.738281 -6.109375 11.03125 -6.796875 C 11.332031 -7.484375 11.414062 -8.320312 11.28125 -9.3125 L 16.65625 -10.03125 L 16.6875 -9.78125 C 17.070312 -6.925781 16.644531 -4.816406 15.40625 -3.453125 C 14.175781 -2.097656 12.210938 -1.238281 9.515625 -0.875 C 6.554688 -0.476562 4.273438 -1.046875 2.671875 -2.578125 C 1.078125 -4.109375 0.0195312 -6.78125 -0.5 -10.59375 L -0.65625 -11.71875 C -1.164062 -15.550781 -0.851562 -18.414062 0.28125 -20.3125 C 1.414062 -22.207031 3.460938 -23.351562 6.421875 -23.75 C 9.117188 -24.113281 11.242188 -23.800781 12.796875 -22.8125 C 14.347656 -21.832031 15.316406 -19.914062 15.703125 -17.0625 L 15.84375 -15.96875 L 10.46875 -15.25 C 10.351562 -16.09375 10.179688 -16.820312 9.953125 -17.4375 C 9.734375 -18.0625 9.421875 -18.523438 9.015625 -18.828125 C 8.617188 -19.140625 8.054688 -19.25 7.328125 -19.15625 L 7.046875 -19.109375 C 6.160156 -18.992188 5.53125 -18.644531 5.15625 -18.0625 C 4.789062 -17.488281 4.597656 -16.726562 4.578125 -15.78125 C 4.566406 -14.84375 4.644531 -13.734375 4.8125 -12.453125 Z M 4.96875 -11.328125 "/></g></g></g><g fill="#ecdfcc" fill-opacity="1"><g transform="translate(129.857708, 262.632462)"><g><path d="M 9.703125 -0.546875 C 6.722656 -0.253906 4.4375 -0.898438 2.84375 -2.484375 C 1.257812 -4.078125 0.28125 -6.785156 -0.09375 -10.609375 L -0.21875 -11.734375 C -0.59375 -15.585938 -0.160156 -18.441406 1.078125 -20.296875 C 2.328125 -22.148438 4.441406 -23.222656 7.421875 -23.515625 C 10.421875 -23.804688 12.707031 -23.164062 14.28125 -21.59375 C 15.863281 -20.019531 16.84375 -17.304688 17.21875 -13.453125 L 17.34375 -12.328125 C 17.71875 -8.503906 17.285156 -5.65625 16.046875 -3.78125 C 14.816406 -1.914062 12.703125 -0.835938 9.703125 -0.546875 Z M 9.09375 -5.203125 L 9.375 -5.234375 C 10.238281 -5.316406 10.863281 -5.632812 11.25 -6.1875 C 11.632812 -6.738281 11.863281 -7.492188 11.9375 -8.453125 C 12.007812 -9.410156 11.984375 -10.523438 11.859375 -11.796875 L 11.734375 -12.921875 C 11.609375 -14.210938 11.421875 -15.3125 11.171875 -16.21875 C 10.921875 -17.125 10.550781 -17.8125 10.0625 -18.28125 C 9.570312 -18.75 8.894531 -18.941406 8.03125 -18.859375 L 7.75 -18.828125 C 6.894531 -18.742188 6.269531 -18.425781 5.875 -17.875 C 5.488281 -17.320312 5.257812 -16.570312 5.1875 -15.625 C 5.113281 -14.6875 5.140625 -13.570312 5.265625 -12.28125 L 5.390625 -11.15625 C 5.515625 -9.882812 5.703125 -8.785156 5.953125 -7.859375 C 6.203125 -6.941406 6.570312 -6.25 7.0625 -5.78125 C 7.5625 -5.3125 8.238281 -5.117188 9.09375 -5.203125 Z M 9.09375 -5.203125 "/></g></g></g><g fill="#ecdfcc" fill-opacity="1"><g transform="translate(149.013968, 260.736589)"><g><path d="M 9.71875 -0.1875 C 6.726562 -0.0078125 4.46875 -0.738281 2.9375 -2.375 C 1.40625 -4.019531 0.519531 -6.765625 0.28125 -10.609375 L 0.21875 -11.75 C -0.0195312 -15.601562 0.515625 -18.429688 1.828125 -20.234375 C 3.148438 -22.046875 5.304688 -23.039062 8.296875 -23.21875 C 11.296875 -23.40625 13.554688 -22.679688 15.078125 -21.046875 C 16.597656 -19.421875 17.476562 -16.679688 17.71875 -12.828125 L 17.78125 -11.6875 C 18.019531 -7.84375 17.484375 -5.007812 16.171875 -3.1875 C 14.867188 -1.375 12.71875 -0.375 9.71875 -0.1875 Z M 9.28125 -4.859375 L 9.5625 -4.875 C 10.425781 -4.925781 11.0625 -5.222656 11.46875 -5.765625 C 11.875 -6.304688 12.128906 -7.050781 12.234375 -8 C 12.335938 -8.957031 12.347656 -10.070312 12.265625 -11.34375 L 12.203125 -12.484375 C 12.117188 -13.765625 11.96875 -14.863281 11.75 -15.78125 C 11.53125 -16.707031 11.1875 -17.414062 10.71875 -17.90625 C 10.25 -18.394531 9.582031 -18.613281 8.71875 -18.5625 L 8.4375 -18.546875 C 7.582031 -18.492188 6.945312 -18.191406 6.53125 -17.640625 C 6.113281 -17.097656 5.851562 -16.351562 5.75 -15.40625 C 5.644531 -14.46875 5.632812 -13.359375 5.71875 -12.078125 L 5.78125 -10.9375 C 5.863281 -9.664062 6.015625 -8.5625 6.234375 -7.625 C 6.453125 -6.695312 6.800781 -5.988281 7.28125 -5.5 C 7.757812 -5.019531 8.425781 -4.804688 9.28125 -4.859375 Z M 9.28125 -4.859375 "/></g></g></g><g fill="#ecdfcc" fill-opacity="1"><g transform="translate(168.23139, 259.556427)"><g><path d="M 6.265625 -22.4375 L 6.46875 -14.78125 L 10.84375 -22.5625 L 17.40625 -22.734375 L 11.53125 -13.8125 L 17.984375 -0.46875 L 11.984375 -0.3125 L 8.140625 -8.703125 L 6.6875 -6.453125 L 6.84375 -0.171875 L 1.421875 -0.03125 L 0.84375 -22.296875 Z M 6.265625 -22.4375 "/></g></g></g><g fill="#ecdfcc" fill-opacity="1"><g transform="translate(186.535622, 259.156598)"><g/></g></g><g fill="#ecdfcc" fill-opacity="1"><g transform="translate(192.141027, 259.054915)"><g><path d="M 18.734375 -21.875 L 18.265625 0.390625 L 12.5625 0.265625 L 6.6875 -12.140625 L 6.734375 -7.859375 L 6.5625 0.140625 L 1.421875 0.03125 L 1.890625 -22.234375 L 7.609375 -22.109375 L 13.5 -9.703125 L 13.421875 -13.984375 L 13.59375 -21.984375 Z M 18.734375 -21.875 "/></g></g></g><g fill="#ecdfcc" fill-opacity="1"><g transform="translate(211.713216, 259.546544)"><g><path d="M 7.765625 -21.921875 L 7.5625 -17.65625 C 7.382812 -14.039062 5.488281 -12.316406 1.875 -12.484375 L 2 -15.046875 C 3.445312 -14.972656 4.367188 -15.503906 4.765625 -16.640625 L 2.078125 -16.765625 L 2.34375 -22.171875 Z M 7.765625 -21.921875 "/></g></g></g><g fill="#ecdfcc" fill-opacity="1"><g transform="translate(219.59846, 259.870222)"><g><path d="M 3 -22.109375 L 16.96875 -21.109375 L 16.640625 -16.4375 L 8.078125 -17.046875 L 7.796875 -13.1875 L 14.921875 -12.6875 L 14.59375 -8.015625 L 7.46875 -8.515625 L 7.15625 -4.1875 L 15.71875 -3.578125 L 15.390625 1.09375 L 1.421875 0.09375 Z M 3 -22.109375 "/></g></g></g><g fill="#ecdfcc" fill-opacity="1"><g transform="translate(235.969489, 261.013414)"><g><path d="M 7.84375 -21.5625 L 15.21875 -20.796875 L 18.203125 1.90625 L 12.4375 1.296875 L 12 -3.28125 L 7.40625 -3.765625 L 6.046875 0.625 L 0.25 0.03125 Z M 10.890625 -14.921875 L 8.8125 -8.3125 L 11.53125 -8.03125 Z M 10.890625 -14.921875 "/></g></g></g><g fill="#ecdfcc" fill-opacity="1"><g transform="translate(254.277147, 262.942657)"><g><path d="M 13.140625 -15.921875 L 10.734375 1.484375 L 5.375 0.734375 L 7.78125 -16.671875 L 2.828125 -17.34375 L 3.46875 -22 L 18.734375 -19.890625 L 18.09375 -15.234375 Z M 13.140625 -15.921875 "/></g></g></g></svg>