<svg xmlns="http://www.w3.org/2000/svg" xmlns:xlink="http://www.w3.org/1999/xlink" width="500" zoomAndPan="magnify" viewBox="0 0 375 374.999991" height="500" preserveAspectRatio="xMidYMid meet" version="1.0"><defs><g/><clipPath id="ffe2d512a6"><path d="M 52.515625 52.515625 L 322.484375 52.515625 L 322.484375 322.484375 L 52.515625 322.484375 Z M 52.515625 52.515625 " clip-rule="nonzero"/></clipPath><clipPath id="e9c055c889"><path d="M 187.5 52.515625 C 112.949219 52.515625 52.515625 112.949219 52.515625 187.5 C 52.515625 262.050781 112.949219 322.484375 187.5 322.484375 C 262.050781 322.484375 322.484375 262.050781 322.484375 187.5 C 322.484375 112.949219 262.050781 52.515625 187.5 52.515625 Z M 187.5 52.515625 " clip-rule="nonzero"/></clipPath><clipPath id="3b3ef4594a"><path d="M 52.515625 52.515625 L 322.480469 52.515625 L 322.480469 322.480469 L 52.515625 322.480469 Z M 52.515625 52.515625 " clip-rule="nonzero"/></clipPath><clipPath id="fb4b73f5d7"><path d="M 187.496094 52.515625 C 112.949219 52.515625 52.515625 112.949219 52.515625 187.496094 C 52.515625 262.046875 112.949219 322.480469 187.496094 322.480469 C 262.046875 322.480469 322.480469 262.046875 322.480469 187.496094 C 322.480469 112.949219 262.046875 52.515625 187.496094 52.515625 Z M 187.496094 52.515625 " clip-rule="nonzero"/></clipPath><clipPath id="4b16aa9871"><path d="M 87 87.695312 L 288 87.695312 L 288 287.195312 L 87 287.195312 Z M 87 87.695312 " clip-rule="nonzero"/></clipPath><clipPath id="8ea628aa45"><path d="M 79.75 209 L 295 209 L 295 213 L 79.75 213 Z M 79.75 209 " clip-rule="nonzero"/></clipPath></defs><g clip-path="url(#ffe2d512a6)"><g clip-path="url(#e9c055c889)"><path fill="#723f2e" d="M 52.515625 52.515625 L 322.484375 52.515625 L 322.484375 322.484375 L 52.515625 322.484375 Z M 52.515625 52.515625 " fill-opacity="1" fill-rule="nonzero"/></g></g><g clip-path="url(#3b3ef4594a)"><g clip-path="url(#fb4b73f5d7)"><path stroke-linecap="butt" transform="matrix(0.75, 0, 0, 0.75, 52.51395, 52.513945)" fill="none" stroke-linejoin="miter" d="M 179.976204 0.00223953 C 80.580364 0.00223953 0.00223353 80.58037 0.00223353 179.97621 C 0.00223353 279.377258 80.580364 359.955388 179.976204 359.955388 C 279.377252 359.955388 359.955382 279.377258 359.955382 179.97621 C 359.955382 80.58037 279.377252 0.00223953 179.976204 0.00223953 Z M 179.976204 0.00223953 " stroke="#723f2e" stroke-width="10" stroke-opacity="1" stroke-miterlimit="4"/></g></g><g clip-path="url(#4b16aa9871)"><path fill="#a5b68d" d="M 91.789062 187.5 C 91.789062 166.769531 100.746094 140.410156 114.5625 125.824219 C 116.613281 123.777344 117.890625 121.476562 120.195312 119.425781 C 121.472656 118.402344 121.984375 118.148438 123.265625 116.867188 C 124.289062 115.84375 125.3125 115.078125 126.335938 114.054688 C 132.734375 108.933594 140.921875 103.5625 148.34375 100.234375 C 154.484375 97.675781 159.347656 96.140625 166.257812 94.347656 C 169.582031 93.582031 172.910156 93.070312 176.492188 92.558594 C 199.269531 90 222.8125 95.628906 241.75 108.679688 C 248.402344 113.285156 249.167969 114.566406 254.800781 119.425781 C 257.101562 121.21875 258.636719 123.523438 260.683594 125.570312 C 269.640625 135.039062 277.832031 152.695312 280.902344 165.746094 C 284.484375 180.332031 284.230469 195.941406 280.390625 210.53125 L 284.996094 210.53125 C 286.53125 204.132812 287.300781 197.476562 287.554688 190.570312 L 287.554688 184.171875 C 287.042969 170.351562 283.972656 156.789062 278.085938 145.019531 C 274.25 137.085938 271.6875 132.992188 266.828125 126.335938 C 260.941406 118.660156 253.007812 110.984375 245.332031 105.609375 C 240.726562 102.539062 235.351562 99.210938 229.976562 96.90625 C 217.183594 91.535156 205.410156 88.464844 193.382812 87.695312 L 181.609375 87.695312 C 170.09375 88.464844 158.066406 91.535156 145.527344 96.90625 C 139.644531 99.210938 132.222656 104.074219 127.101562 107.910156 C 124.03125 110.214844 116.355469 116.867188 114.308594 119.425781 L 108.933594 125.824219 C 104.070312 132.222656 101 137.085938 97.164062 144.761719 C 92.554688 154.230469 87.695312 169.839844 87.695312 184.171875 C 87.695312 194.152344 88.460938 202.597656 90.253906 210.53125 L 94.859375 210.53125 C 92.8125 203.109375 91.789062 195.175781 91.789062 187.5 Z M 246.355469 262.988281 C 245.074219 264.011719 243.796875 265.039062 242.003906 266.0625 C 237.652344 269.132812 231.769531 272.457031 226.90625 274.761719 C 217.4375 278.601562 209.503906 281.160156 198.757812 282.4375 C 181.097656 284.484375 164.976562 281.925781 149.109375 275.015625 C 143.738281 272.714844 138.105469 269.644531 133.757812 266.316406 C 132.476562 265.550781 131.453125 265.039062 130.175781 264.011719 C 129.664062 263.757812 129.152344 263.246094 128.894531 262.988281 L 121.984375 262.988281 C 124.542969 265.292969 127.359375 267.339844 130.175781 269.386719 C 134.523438 272.457031 139.898438 275.785156 145.273438 278.089844 C 157.554688 283.207031 169.582031 286.535156 181.867188 287.300781 L 194.40625 287.300781 C 200.292969 287.046875 206.179688 286.019531 212.320312 284.484375 C 215.644531 283.460938 218.207031 282.695312 221.277344 281.671875 C 231.769531 278.089844 243.285156 271.433594 251.730469 264.269531 C 252.242188 263.757812 252.753906 263.5 253.265625 262.988281 Z M 246.355469 262.988281 " fill-opacity="1" fill-rule="evenodd"/></g><path fill="#a5b68d" d="M 97.929688 187.5 C 97.929688 180.84375 98.953125 172.910156 100.234375 167.539062 C 104.070312 150.648438 112.003906 136.828125 123.777344 124.800781 L 129.152344 119.683594 C 131.453125 117.890625 133.246094 116.355469 135.546875 114.820312 C 147.320312 105.609375 168.816406 98.1875 184.171875 98.1875 C 201.316406 98.1875 211.550781 99.722656 226.136719 106.632812 C 233.304688 109.960938 239.703125 114.308594 245.84375 119.425781 C 265.035156 134.78125 277.320312 161.652344 277.320312 187.5 C 277.320312 194.152344 276.296875 202.085938 275.015625 207.457031 C 274.761719 208.480469 274.503906 209.507812 274.25 210.53125 L 276.296875 210.53125 C 278.085938 204.132812 279.109375 197.222656 279.109375 190.570312 C 279.109375 173.167969 276.808594 162.164062 270.152344 148.089844 C 267.59375 142.972656 265.035156 138.621094 261.964844 134.015625 C 239.957031 104.074219 202.851562 90.253906 167.28125 98.445312 C 160.882812 99.722656 156.277344 101.515625 150.648438 103.816406 C 141.691406 107.65625 130.429688 115.332031 124.03125 121.730469 C 115.585938 130.6875 110.726562 136.316406 105.351562 147.832031 C 100.746094 157.300781 96.394531 170.609375 96.394531 184.425781 C 96.394531 194.917969 96.90625 202.851562 98.953125 210.53125 L 101 210.53125 C 99.210938 203.109375 97.929688 195.175781 97.929688 187.5 Z M 235.863281 262.988281 C 222.554688 271.433594 206.945312 276.808594 191.078125 276.808594 C 173.933594 276.808594 163.699219 275.273438 149.109375 268.363281 C 146.808594 267.339844 144.503906 266.0625 142.203125 264.527344 C 141.179688 264.011719 140.410156 263.5 139.386719 262.988281 L 136.058594 262.988281 C 156.789062 277.066406 182.890625 282.4375 207.96875 276.554688 C 214.621094 275.273438 218.972656 273.480469 224.601562 271.179688 C 229.722656 269.132812 234.839844 266.316406 239.703125 262.988281 Z M 235.863281 262.988281 " fill-opacity="1" fill-rule="evenodd"/><path fill="#a5b68d" d="M 262.734375 262.988281 C 262.734375 263.03125 262.613281 263.074219 262.371094 263.117188 C 262.128906 263.15625 261.769531 263.199219 261.289062 263.238281 C 260.804688 263.28125 260.207031 263.320312 259.492188 263.363281 C 258.777344 263.402344 257.949219 263.441406 257.003906 263.480469 C 256.0625 263.519531 255.011719 263.554688 253.847656 263.59375 C 252.6875 263.628906 251.421875 263.664062 250.054688 263.699219 C 248.683594 263.734375 247.21875 263.769531 245.65625 263.800781 C 244.09375 263.835938 242.4375 263.863281 240.695312 263.894531 C 238.953125 263.925781 237.128906 263.953125 235.226562 263.980469 C 233.320312 264.003906 231.34375 264.03125 229.296875 264.054688 C 227.246094 264.078125 225.136719 264.097656 222.960938 264.117188 C 220.789062 264.136719 218.566406 264.15625 216.289062 264.171875 C 214.011719 264.1875 211.695312 264.203125 209.335938 264.214844 C 206.980469 264.226562 204.589844 264.238281 202.175781 264.246094 C 199.757812 264.253906 197.324219 264.257812 194.871094 264.261719 C 192.417969 264.265625 189.960938 264.269531 187.496094 264.269531 C 185.03125 264.269531 182.574219 264.265625 180.121094 264.261719 C 177.671875 264.257812 175.234375 264.253906 172.820312 264.246094 C 170.402344 264.238281 168.015625 264.226562 165.65625 264.214844 C 163.300781 264.203125 160.980469 264.1875 158.707031 264.171875 C 156.429688 264.15625 154.203125 264.136719 152.03125 264.117188 C 149.859375 264.097656 147.746094 264.078125 145.699219 264.054688 C 143.648438 264.03125 141.671875 264.003906 139.769531 263.980469 C 137.863281 263.953125 136.039062 263.925781 134.296875 263.894531 C 132.554688 263.863281 130.902344 263.835938 129.339844 263.800781 C 127.777344 263.769531 126.308594 263.734375 124.941406 263.699219 C 123.570312 263.664062 122.304688 263.628906 121.144531 263.59375 C 119.984375 263.554688 118.929688 263.519531 117.988281 263.480469 C 117.046875 263.441406 116.214844 263.402344 115.5 263.363281 C 114.785156 263.320312 114.1875 263.28125 113.707031 263.238281 C 113.226562 263.199219 112.863281 263.15625 112.625 263.117188 C 112.382812 263.074219 112.261719 263.03125 112.261719 262.988281 C 112.261719 262.949219 112.382812 262.90625 112.625 262.863281 C 112.863281 262.824219 113.226562 262.78125 113.707031 262.742188 C 114.1875 262.699219 114.785156 262.660156 115.5 262.617188 C 116.214844 262.578125 117.046875 262.539062 117.988281 262.5 C 118.929688 262.460938 119.984375 262.421875 121.144531 262.386719 C 122.304688 262.351562 123.570312 262.3125 124.941406 262.277344 C 126.308594 262.246094 127.777344 262.210938 129.339844 262.179688 C 130.902344 262.144531 132.554688 262.113281 134.296875 262.085938 C 136.039062 262.054688 137.863281 262.027344 139.769531 262 C 141.671875 261.972656 143.648438 261.949219 145.699219 261.925781 C 147.746094 261.902344 149.859375 261.882812 152.03125 261.863281 C 154.203125 261.84375 156.429688 261.824219 158.707031 261.808594 C 160.980469 261.792969 163.300781 261.777344 165.65625 261.765625 C 168.015625 261.753906 170.402344 261.742188 172.820312 261.734375 C 175.234375 261.726562 177.671875 261.722656 180.121094 261.714844 C 182.574219 261.710938 185.03125 261.710938 187.496094 261.710938 C 189.960938 261.710938 192.417969 261.710938 194.871094 261.714844 C 197.324219 261.722656 199.757812 261.726562 202.175781 261.734375 C 204.589844 261.742188 206.980469 261.753906 209.335938 261.765625 C 211.695312 261.777344 214.011719 261.792969 216.289062 261.808594 C 218.566406 261.824219 220.789062 261.84375 222.960938 261.863281 C 225.136719 261.882812 227.246094 261.902344 229.296875 261.925781 C 231.34375 261.949219 233.320312 261.972656 235.226562 262 C 237.128906 262.027344 238.953125 262.054688 240.695312 262.085938 C 242.4375 262.113281 244.09375 262.144531 245.65625 262.179688 C 247.21875 262.210938 248.683594 262.246094 250.054688 262.277344 C 251.421875 262.3125 252.6875 262.351562 253.847656 262.386719 C 255.011719 262.421875 256.0625 262.460938 257.003906 262.5 C 257.949219 262.539062 258.777344 262.578125 259.492188 262.617188 C 260.207031 262.660156 260.804688 262.699219 261.289062 262.742188 C 261.769531 262.78125 262.128906 262.824219 262.371094 262.863281 C 262.613281 262.90625 262.734375 262.949219 262.734375 262.988281 Z M 262.734375 262.988281 " fill-opacity="1" fill-rule="nonzero"/><g clip-path="url(#8ea628aa45)"><path fill="#a5b68d" d="M 295.234375 211.042969 C 295.234375 211.0625 295.1875 211.082031 295.101562 211.105469 C 295.015625 211.125 294.886719 211.144531 294.714844 211.167969 C 294.542969 211.1875 294.324219 211.207031 294.066406 211.230469 C 293.808594 211.25 293.507812 211.269531 293.164062 211.289062 C 292.820312 211.3125 292.433594 211.332031 292.003906 211.351562 C 291.574219 211.371094 291.105469 211.394531 290.59375 211.414062 C 290.082031 211.433594 289.527344 211.453125 288.933594 211.472656 C 288.339844 211.492188 287.707031 211.511719 287.03125 211.53125 C 286.355469 211.550781 285.644531 211.570312 284.890625 211.589844 C 284.136719 211.605469 283.34375 211.625 282.511719 211.644531 C 281.679688 211.664062 280.8125 211.679688 279.90625 211.699219 C 279 211.71875 278.054688 211.734375 277.074219 211.753906 C 276.097656 211.769531 275.082031 211.785156 274.03125 211.804688 C 272.980469 211.820312 271.894531 211.835938 270.777344 211.851562 C 269.660156 211.871094 268.507812 211.886719 267.324219 211.902344 C 266.140625 211.917969 264.925781 211.929688 263.675781 211.945312 C 262.429688 211.960938 261.152344 211.976562 259.847656 211.988281 C 258.542969 212.003906 257.207031 212.015625 255.84375 212.03125 C 254.480469 212.042969 253.089844 212.054688 251.675781 212.070312 C 250.257812 212.082031 248.816406 212.09375 247.351562 212.105469 C 245.886719 212.117188 244.394531 212.128906 242.882812 212.140625 C 241.371094 212.148438 239.839844 212.160156 238.28125 212.167969 C 236.726562 212.179688 235.152344 212.1875 233.558594 212.199219 C 231.964844 212.207031 230.355469 212.214844 228.726562 212.222656 C 227.097656 212.230469 225.453125 212.238281 223.792969 212.246094 C 222.132812 212.253906 220.457031 212.257812 218.769531 212.265625 C 217.082031 212.273438 215.386719 212.277344 213.675781 212.28125 C 211.964844 212.289062 210.246094 212.292969 208.515625 212.296875 C 206.785156 212.300781 205.050781 212.304688 203.304688 212.308594 C 201.5625 212.308594 199.8125 212.3125 198.058594 212.316406 C 196.300781 212.316406 194.542969 212.320312 192.78125 212.320312 C 191.023438 212.320312 189.261719 212.320312 187.496094 212.320312 C 185.734375 212.320312 183.972656 212.320312 182.210938 212.320312 C 180.449219 212.320312 178.691406 212.316406 176.9375 212.316406 C 175.183594 212.3125 173.433594 212.308594 171.6875 212.308594 C 169.945312 212.304688 168.207031 212.300781 166.480469 212.296875 C 164.75 212.292969 163.03125 212.289062 161.320312 212.28125 C 159.609375 212.277344 157.910156 212.273438 156.222656 212.265625 C 154.535156 212.257812 152.863281 212.253906 151.203125 212.246094 C 149.542969 212.238281 147.898438 212.230469 146.269531 212.222656 C 144.640625 212.214844 143.027344 212.207031 141.433594 212.199219 C 139.839844 212.1875 138.265625 212.179688 136.710938 212.167969 C 135.15625 212.160156 133.621094 212.148438 132.109375 212.140625 C 130.597656 212.128906 129.109375 212.117188 127.640625 212.105469 C 126.175781 212.09375 124.734375 212.082031 123.320312 212.070312 C 121.902344 212.054688 120.511719 212.042969 119.148438 212.03125 C 117.785156 212.015625 116.453125 212.003906 115.144531 211.988281 C 113.839844 211.976562 112.5625 211.960938 111.316406 211.945312 C 110.070312 211.929688 108.855469 211.917969 107.671875 211.902344 C 106.484375 211.886719 105.335938 211.871094 104.214844 211.851562 C 103.097656 211.835938 102.011719 211.820312 100.960938 211.804688 C 99.914062 211.785156 98.898438 211.769531 97.917969 211.753906 C 96.9375 211.734375 95.996094 211.71875 95.089844 211.699219 C 94.183594 211.679688 93.3125 211.664062 92.480469 211.644531 C 91.652344 211.625 90.859375 211.605469 90.105469 211.589844 C 89.351562 211.570312 88.636719 211.550781 87.960938 211.53125 C 87.289062 211.511719 86.652344 211.492188 86.058594 211.472656 C 85.464844 211.453125 84.910156 211.433594 84.398438 211.414062 C 83.886719 211.394531 83.417969 211.371094 82.988281 211.351562 C 82.5625 211.332031 82.175781 211.3125 81.832031 211.289062 C 81.488281 211.269531 81.1875 211.25 80.925781 211.230469 C 80.667969 211.207031 80.453125 211.1875 80.28125 211.167969 C 80.105469 211.144531 79.976562 211.125 79.890625 211.105469 C 79.804688 211.082031 79.761719 211.0625 79.761719 211.042969 C 79.761719 211.019531 79.804688 211 79.890625 210.980469 C 79.976562 210.957031 80.105469 210.9375 80.28125 210.914062 C 80.453125 210.894531 80.667969 210.875 80.925781 210.855469 C 81.1875 210.832031 81.488281 210.8125 81.832031 210.792969 C 82.175781 210.769531 82.5625 210.75 82.988281 210.730469 C 83.417969 210.710938 83.886719 210.691406 84.398438 210.671875 C 84.910156 210.648438 85.464844 210.628906 86.058594 210.609375 C 86.652344 210.589844 87.289062 210.570312 87.960938 210.550781 C 88.636719 210.53125 89.351562 210.511719 90.105469 210.496094 C 90.859375 210.476562 91.652344 210.457031 92.480469 210.4375 C 93.3125 210.417969 94.183594 210.402344 95.089844 210.382812 C 95.996094 210.367188 96.9375 210.347656 97.917969 210.332031 C 98.898438 210.3125 99.914062 210.296875 100.960938 210.277344 C 102.011719 210.261719 103.097656 210.246094 104.214844 210.230469 C 105.335938 210.214844 106.484375 210.199219 107.671875 210.183594 C 108.855469 210.167969 110.070312 210.152344 111.316406 210.136719 C 112.5625 210.121094 113.839844 210.105469 115.144531 210.09375 C 116.453125 210.078125 117.785156 210.066406 119.148438 210.050781 C 120.511719 210.039062 121.902344 210.027344 123.320312 210.011719 C 124.734375 210 126.175781 209.988281 127.640625 209.976562 C 129.109375 209.964844 130.597656 209.953125 132.109375 209.945312 C 133.621094 209.933594 135.15625 209.921875 136.710938 209.914062 C 138.265625 209.902344 139.839844 209.894531 141.433594 209.882812 C 143.027344 209.875 144.640625 209.867188 146.269531 209.859375 C 147.898438 209.851562 149.542969 209.84375 151.203125 209.835938 C 152.863281 209.828125 154.535156 209.824219 156.222656 209.816406 C 157.910156 209.8125 159.609375 209.804688 161.320312 209.800781 C 163.03125 209.796875 164.75 209.789062 166.480469 209.785156 C 168.207031 209.78125 169.945312 209.777344 171.6875 209.777344 C 173.433594 209.773438 175.183594 209.769531 176.9375 209.769531 C 178.691406 209.765625 180.449219 209.765625 182.210938 209.761719 C 183.972656 209.761719 185.734375 209.761719 187.496094 209.761719 C 189.261719 209.761719 191.023438 209.761719 192.78125 209.761719 C 194.542969 209.765625 196.300781 209.765625 198.058594 209.769531 C 199.8125 209.769531 201.5625 209.773438 203.304688 209.777344 C 205.050781 209.777344 206.785156 209.78125 208.515625 209.785156 C 210.246094 209.789062 211.964844 209.796875 213.675781 209.800781 C 215.386719 209.804688 217.082031 209.8125 218.769531 209.816406 C 220.457031 209.824219 222.132812 209.828125 223.792969 209.835938 C 225.453125 209.84375 227.097656 209.851562 228.726562 209.859375 C 230.355469 209.867188 231.964844 209.875 233.558594 209.882812 C 235.152344 209.894531 236.726562 209.902344 238.28125 209.914062 C 239.839844 209.921875 241.371094 209.933594 242.882812 209.945312 C 244.394531 209.953125 245.886719 209.964844 247.351562 209.976562 C 248.816406 209.988281 250.257812 210 251.675781 210.011719 C 253.089844 210.027344 254.480469 210.039062 255.84375 210.050781 C 257.207031 210.066406 258.542969 210.078125 259.847656 210.09375 C 261.152344 210.105469 262.429688 210.121094 263.675781 210.136719 C 264.925781 210.152344 266.140625 210.167969 267.324219 210.183594 C 268.507812 210.199219 269.660156 210.214844 270.777344 210.230469 C 271.894531 210.246094 272.980469 210.261719 274.03125 210.277344 C 275.082031 210.296875 276.097656 210.3125 277.074219 210.332031 C 278.054688 210.347656 279 210.367188 279.90625 210.382812 C 280.8125 210.402344 281.679688 210.417969 282.511719 210.4375 C 283.34375 210.457031 284.136719 210.476562 284.890625 210.496094 C 285.644531 210.511719 286.355469 210.53125 287.03125 210.550781 C 287.707031 210.570312 288.339844 210.589844 288.933594 210.609375 C 289.527344 210.628906 290.082031 210.648438 290.59375 210.671875 C 291.105469 210.691406 291.574219 210.710938 292.003906 210.730469 C 292.433594 210.75 292.820312 210.769531 293.164062 210.792969 C 293.507812 210.8125 293.808594 210.832031 294.066406 210.855469 C 294.324219 210.875 294.542969 210.894531 294.714844 210.914062 C 294.886719 210.9375 295.015625 210.957031 295.101562 210.980469 C 295.1875 211 295.234375 211.019531 295.234375 211.042969 Z M 295.234375 211.042969 " fill-opacity="1" fill-rule="nonzero"/></g><path fill="#a5b68d" d="M 156.789062 184.425781 L 149.878906 184.425781 C 149.109375 184.683594 148.085938 184.683594 147.320312 184.425781 C 144.761719 183.914062 144.25 179.820312 141.179688 179.308594 L 136.316406 179.308594 C 135.035156 179.566406 134.011719 179.566406 132.988281 179.566406 C 128.382812 179.566406 123.519531 179.820312 119.425781 179.820312 C 118.148438 179.820312 114.5625 179.566406 114.5625 180.589844 C 114.5625 181.867188 117.636719 181.613281 119.9375 181.613281 L 134.269531 181.613281 C 134.78125 181.613281 135.292969 181.355469 135.804688 181.613281 C 136.316406 181.613281 136.570312 182.125 136.570312 182.636719 C 136.570312 183.914062 132.988281 183.660156 131.453125 183.660156 L 116.867188 183.660156 C 115.585938 183.660156 114.5625 183.402344 114.5625 184.425781 C 114.5625 185.449219 116.097656 185.195312 117.125 185.195312 L 131.199219 185.195312 C 132.734375 185.195312 136.828125 184.683594 136.828125 186.21875 C 136.828125 187.242188 135.292969 187.242188 134.523438 187.242188 L 117.125 187.242188 C 115.84375 187.242188 114.5625 186.988281 114.5625 188.011719 C 114.5625 188.777344 115.84375 188.777344 116.867188 188.777344 L 131.199219 188.777344 C 133.246094 188.777344 136.570312 188.265625 136.570312 189.800781 C 136.570312 191.082031 132.734375 190.824219 131.199219 190.824219 L 116.867188 190.824219 C 115.84375 190.824219 114.5625 190.570312 114.5625 191.59375 C 114.5625 192.871094 118.148438 192.359375 119.425781 192.359375 C 124.03125 192.359375 128.894531 192.617188 133.757812 192.617188 C 135.035156 192.617188 135.546875 192.871094 136.570312 192.871094 C 142.457031 192.871094 142.203125 193.382812 145.015625 189.546875 C 146.550781 187.5 147.0625 187.753906 149.109375 187.753906 C 150.136719 187.753906 150.648438 187.753906 151.925781 187.753906 C 152.949219 187.753906 153.972656 187.753906 154.996094 187.753906 C 155.507812 187.753906 156.019531 187.753906 156.789062 187.753906 Z M 220.253906 188.011719 C 220.507812 188.011719 220.765625 188.011719 221.019531 188.011719 C 223.066406 188.011719 228.953125 187.753906 230.234375 187.753906 C 232.792969 188.523438 234.582031 191.847656 238.933594 193.382812 C 240.46875 194.152344 242.003906 194.152344 243.796875 194.152344 L 244.820312 194.152344 C 248.914062 194.152344 254.03125 192.617188 257.101562 191.082031 C 258.894531 190.058594 261.199219 187.753906 260.683594 185.707031 C 260.171875 182.636719 256.847656 180.84375 254.03125 180.078125 C 248.65625 178.285156 241.492188 176.75 236.117188 180.332031 C 234.582031 181.101562 233.046875 182.890625 232.023438 183.660156 C 231.511719 183.914062 231 184.171875 230.488281 184.425781 C 229.464844 184.683594 225.371094 184.425781 223.578125 184.425781 C 222.554688 184.425781 222.300781 184.425781 221.277344 184.425781 C 221.019531 184.425781 220.507812 184.425781 220.253906 184.425781 Z M 220.253906 188.011719 " fill-opacity="1" fill-rule="evenodd"/><path fill="#a5b68d" d="M 149.878906 134.78125 C 155.507812 135.550781 166.511719 132.480469 171.375 130.6875 C 177.261719 128.640625 183.914062 124.546875 189.800781 123.265625 C 201.058594 120.453125 211.808594 124.800781 215.902344 134.78125 C 216.925781 136.828125 217.4375 137.597656 216.414062 139.644531 C 215.644531 141.179688 214.878906 142.972656 214.621094 145.019531 L 216.414062 143.226562 C 219.996094 139.386719 227.929688 136.574219 234.070312 137.597656 C 249.425781 140.410156 249.167969 161.90625 233.304688 168.304688 C 226.90625 170.863281 218.460938 170.097656 212.832031 166.515625 L 211.808594 165.492188 C 214.367188 163.1875 217.183594 161.652344 217.949219 155.253906 L 217.695312 155.765625 C 217.4375 156.023438 217.4375 156.277344 217.183594 156.277344 C 213.34375 161.394531 205.152344 166.257812 199.78125 162.929688 C 202.339844 161.394531 204.386719 158.582031 205.410156 154.742188 C 206.433594 150.136719 205.667969 147.578125 204.898438 143.484375 C 204.386719 148.855469 203.617188 152.949219 200.804688 156.535156 C 199.78125 157.8125 197.734375 159.347656 196.199219 160.371094 C 194.148438 161.394531 191.847656 161.90625 189.03125 162.164062 C 190.054688 158.835938 190.824219 156.023438 189.289062 152.695312 C 188.777344 156.789062 187.496094 160.628906 183.148438 162.164062 C 180.84375 162.929688 171.628906 163.441406 168.558594 163.1875 C 164.210938 162.929688 160.371094 161.394531 157.300781 158.582031 C 156.53125 157.8125 156.277344 157.300781 155.507812 156.535156 C 154.230469 155.511719 150.648438 151.160156 150.136719 150.136719 C 150.136719 152.4375 152.183594 156.535156 153.207031 158.324219 C 154.996094 161.140625 156.789062 162.929688 159.089844 164.464844 C 157.042969 169.839844 145.785156 171.121094 138.617188 164.464844 C 136.058594 162.164062 133.757812 159.605469 132.476562 155.511719 C 131.199219 151.414062 131.964844 146.296875 133.5 142.460938 C 138.617188 131.199219 151.160156 131.96875 163.1875 127.359375 C 166.769531 126.082031 171.117188 123.523438 172.398438 120.964844 C 168.304688 123.523438 166.511719 124.546875 161.140625 125.824219 C 148.085938 129.152344 135.035156 128.382812 129.40625 142.714844 C 125.824219 152.4375 129.917969 161.652344 134.78125 167.027344 C 140.410156 172.910156 148.085938 175.726562 159.347656 174.957031 C 161.652344 167.539062 163.953125 167.027344 171.886719 165.746094 C 178.796875 164.464844 184.9375 163.699219 191.847656 164.980469 C 196.964844 166.003906 204.128906 168.304688 208.226562 170.351562 C 213.855469 173.421875 213.085938 179.566406 212.832031 186.988281 C 210.015625 186.21875 207.457031 184.9375 204.128906 184.171875 C 194.917969 181.355469 182.890625 180.078125 173.167969 180.84375 C 184.683594 181.613281 198.246094 184.683594 208.738281 189.289062 C 213.855469 191.59375 214.367188 192.105469 217.183594 195.6875 L 217.183594 172.910156 C 225.371094 174.191406 232.28125 175.46875 239.191406 171.375 C 252.753906 162.929688 255.3125 135.804688 231.511719 133.757812 C 225.113281 133.246094 222.554688 135.550781 220.765625 135.804688 C 218.71875 120.964844 200.035156 111.75 186.730469 116.101562 C 181.609375 117.890625 171.628906 126.59375 160.371094 131.457031 C 158.835938 132.222656 151.160156 135.039062 149.878906 134.78125 Z M 202.851562 201.316406 C 199.523438 201.0625 191.589844 202.597656 181.355469 202.085938 C 178.027344 202.085938 174.191406 201.828125 171.628906 200.292969 C 168.046875 198.246094 169.582031 194.664062 173.679688 194.152344 C 176.75 193.640625 189.289062 196.964844 193.636719 197.734375 C 198.5 198.246094 212.0625 199.015625 215.902344 197.222656 C 205.410156 196.199219 198.5 194.152344 189.289062 191.335938 C 181.097656 188.777344 171.117188 185.960938 162.417969 189.035156 L 160.371094 180.078125 C 159.601562 181.867188 157.554688 194.40625 157.8125 195.941406 C 159.601562 207.457031 186.730469 204.132812 195.175781 202.597656 C 197.476562 202.339844 201.316406 201.316406 202.851562 201.316406 Z M 202.851562 201.316406 " fill-opacity="1" fill-rule="evenodd"/><g fill="#a5b68d" fill-opacity="1"><g transform="translate(90.575807, 246.986381)"><g><path d="M 21.78125 -4.46875 C 22.3125 -3.644531 22.3125 -2.867188 21.78125 -2.140625 C 21.15625 -1.328125 20.515625 -0.773438 19.859375 -0.484375 C 17.816406 0.460938 15.578125 0.992188 13.140625 1.109375 C 9.515625 0.847656 6.578125 -0.332031 4.328125 -2.4375 C 1.304688 -5.238281 0.378906 -8.882812 1.546875 -13.375 C 2.398438 -16.75 4.488281 -19.503906 7.8125 -21.640625 C 8.570312 -22.117188 9.375 -22.476562 10.21875 -22.71875 C 11.0625 -22.957031 11.898438 -23.078125 12.734375 -23.078125 C 13.734375 -23.078125 14.691406 -22.914062 15.609375 -22.59375 C 16.535156 -22.28125 17.378906 -21.8125 18.140625 -21.1875 C 18.710938 -20.707031 19.132812 -20.191406 19.40625 -19.640625 C 19.632812 -19.117188 19.613281 -18.660156 19.34375 -18.265625 C 19.039062 -17.859375 18.582031 -17.695312 17.96875 -17.78125 C 17.53125 -17.8125 17.046875 -17.941406 16.515625 -18.171875 C 14.535156 -18.972656 12.773438 -19.066406 11.234375 -18.453125 C 9.703125 -17.847656 8.273438 -16.492188 6.953125 -14.390625 C 6.671875 -13.941406 6.457031 -13.457031 6.3125 -12.9375 C 6.164062 -12.425781 6.054688 -11.957031 5.984375 -11.53125 C 5.710938 -10.195312 5.890625 -8.9375 6.515625 -7.75 C 7.148438 -6.570312 8.128906 -5.664062 9.453125 -5.03125 C 10.472656 -4.519531 11.484375 -4.21875 12.484375 -4.125 C 13.492188 -4.039062 14.460938 -4.082031 15.390625 -4.25 C 16.316406 -4.425781 17.195312 -4.660156 18.03125 -4.953125 C 18.28125 -5.023438 18.550781 -5.101562 18.84375 -5.1875 C 19.144531 -5.28125 19.425781 -5.34375 19.6875 -5.375 C 20.601562 -5.476562 21.300781 -5.175781 21.78125 -4.46875 Z M 21.78125 -4.46875 "/></g></g></g><g fill="#a5b68d" fill-opacity="1"><g transform="translate(113.784355, 246.986381)"><g><path d="M 12.1875 -21.328125 C 13.46875 -21.023438 14.640625 -20.644531 15.703125 -20.1875 C 16.773438 -19.726562 17.703125 -19.128906 18.484375 -18.390625 C 19.273438 -17.660156 19.898438 -16.734375 20.359375 -15.609375 C 20.828125 -14.492188 21.113281 -13.132812 21.21875 -11.53125 C 20.988281 -8.976562 20.25 -6.945312 19 -5.4375 C 18.757812 -5.164062 18.523438 -4.890625 18.296875 -4.609375 C 18.066406 -4.335938 17.828125 -4.070312 17.578125 -3.8125 L 17.03125 -3.15625 C 15.195312 -1.007812 12.800781 -0.117188 9.84375 -0.484375 C 9.632812 -0.503906 9.425781 -0.53125 9.21875 -0.5625 C 9.007812 -0.601562 8.800781 -0.644531 8.59375 -0.6875 L 8.46875 -0.71875 C 5.71875 -1.289062 3.695312 -2.722656 2.40625 -5.015625 C 1.675781 -6.273438 1.238281 -7.6875 1.09375 -9.25 C 0.957031 -10.8125 1.128906 -12.28125 1.609375 -13.65625 C 3.171875 -18.132812 6.132812 -20.660156 10.5 -21.234375 L 10.8125 -21.296875 C 10.96875 -21.316406 11.117188 -21.335938 11.265625 -21.359375 C 11.421875 -21.378906 11.578125 -21.390625 11.734375 -21.390625 C 11.910156 -21.390625 12.0625 -21.367188 12.1875 -21.328125 Z M 16.03125 -11.078125 L 16.0625 -11.15625 L 16.0625 -11.25 C 15.925781 -12.28125 15.648438 -13.078125 15.234375 -13.640625 C 14.828125 -14.203125 14.175781 -14.664062 13.28125 -15.03125 C 12.457031 -15.375 11.742188 -15.695312 11.140625 -16 C 10.316406 -16.414062 9.609375 -16.550781 9.015625 -16.40625 C 8.421875 -16.269531 7.867188 -15.828125 7.359375 -15.078125 C 5.828125 -12.773438 5.453125 -10.535156 6.234375 -8.359375 C 6.503906 -7.628906 6.929688 -7.015625 7.515625 -6.515625 C 8.097656 -6.023438 8.769531 -5.703125 9.53125 -5.546875 C 9.800781 -5.492188 10.078125 -5.46875 10.359375 -5.46875 C 11.578125 -5.46875 12.585938 -5.925781 13.390625 -6.84375 C 13.472656 -6.914062 13.546875 -6.984375 13.609375 -7.046875 C 13.679688 -7.117188 13.742188 -7.179688 13.796875 -7.234375 C 13.972656 -7.429688 14.140625 -7.617188 14.296875 -7.796875 C 14.460938 -7.984375 14.609375 -8.179688 14.734375 -8.390625 C 14.910156 -8.691406 15.070312 -9 15.21875 -9.3125 C 15.375 -9.632812 15.519531 -9.957031 15.65625 -10.28125 C 15.71875 -10.414062 15.773438 -10.546875 15.828125 -10.671875 C 15.890625 -10.804688 15.957031 -10.941406 16.03125 -11.078125 Z M 16.03125 -11.078125 "/></g></g></g><g fill="#a5b68d" fill-opacity="1"><g transform="translate(136.077158, 246.986381)"><g><path d="M 12.1875 -21.328125 C 13.46875 -21.023438 14.640625 -20.644531 15.703125 -20.1875 C 16.773438 -19.726562 17.703125 -19.128906 18.484375 -18.390625 C 19.273438 -17.660156 19.898438 -16.734375 20.359375 -15.609375 C 20.828125 -14.492188 21.113281 -13.132812 21.21875 -11.53125 C 20.988281 -8.976562 20.25 -6.945312 19 -5.4375 C 18.757812 -5.164062 18.523438 -4.890625 18.296875 -4.609375 C 18.066406 -4.335938 17.828125 -4.070312 17.578125 -3.8125 L 17.03125 -3.15625 C 15.195312 -1.007812 12.800781 -0.117188 9.84375 -0.484375 C 9.632812 -0.503906 9.425781 -0.53125 9.21875 -0.5625 C 9.007812 -0.601562 8.800781 -0.644531 8.59375 -0.6875 L 8.46875 -0.71875 C 5.71875 -1.289062 3.695312 -2.722656 2.40625 -5.015625 C 1.675781 -6.273438 1.238281 -7.6875 1.09375 -9.25 C 0.957031 -10.8125 1.128906 -12.28125 1.609375 -13.65625 C 3.171875 -18.132812 6.132812 -20.660156 10.5 -21.234375 L 10.8125 -21.296875 C 10.96875 -21.316406 11.117188 -21.335938 11.265625 -21.359375 C 11.421875 -21.378906 11.578125 -21.390625 11.734375 -21.390625 C 11.910156 -21.390625 12.0625 -21.367188 12.1875 -21.328125 Z M 16.03125 -11.078125 L 16.0625 -11.15625 L 16.0625 -11.25 C 15.925781 -12.28125 15.648438 -13.078125 15.234375 -13.640625 C 14.828125 -14.203125 14.175781 -14.664062 13.28125 -15.03125 C 12.457031 -15.375 11.742188 -15.695312 11.140625 -16 C 10.316406 -16.414062 9.609375 -16.550781 9.015625 -16.40625 C 8.421875 -16.269531 7.867188 -15.828125 7.359375 -15.078125 C 5.828125 -12.773438 5.453125 -10.535156 6.234375 -8.359375 C 6.503906 -7.628906 6.929688 -7.015625 7.515625 -6.515625 C 8.097656 -6.023438 8.769531 -5.703125 9.53125 -5.546875 C 9.800781 -5.492188 10.078125 -5.46875 10.359375 -5.46875 C 11.578125 -5.46875 12.585938 -5.925781 13.390625 -6.84375 C 13.472656 -6.914062 13.546875 -6.984375 13.609375 -7.046875 C 13.679688 -7.117188 13.742188 -7.179688 13.796875 -7.234375 C 13.972656 -7.429688 14.140625 -7.617188 14.296875 -7.796875 C 14.460938 -7.984375 14.609375 -8.179688 14.734375 -8.390625 C 14.910156 -8.691406 15.070312 -9 15.21875 -9.3125 C 15.375 -9.632812 15.519531 -9.957031 15.65625 -10.28125 C 15.71875 -10.414062 15.773438 -10.546875 15.828125 -10.671875 C 15.890625 -10.804688 15.957031 -10.941406 16.03125 -11.078125 Z M 16.03125 -11.078125 "/></g></g></g><g fill="#a5b68d" fill-opacity="1"><g transform="translate(158.369962, 246.986381)"><g><path d="M 17.296875 -5.015625 C 17.859375 -4.535156 18.21875 -3.984375 18.375 -3.359375 C 18.53125 -2.742188 18.445312 -2.164062 18.125 -1.625 C 17.800781 -1.050781 17.328125 -0.691406 16.703125 -0.546875 C 16.078125 -0.410156 15.394531 -0.484375 14.65625 -0.765625 C 13.226562 -1.359375 11.851562 -2.421875 10.53125 -3.953125 L 9.640625 -4.984375 C 9.171875 -5.535156 8.695312 -6.09375 8.21875 -6.65625 C 7.738281 -7.21875 7.257812 -7.773438 6.78125 -8.328125 C 6.75 -8.390625 6.710938 -8.445312 6.671875 -8.5 C 6.628906 -8.5625 6.59375 -8.628906 6.5625 -8.703125 C 6.519531 -8.796875 6.476562 -8.863281 6.4375 -8.90625 L 6.265625 -9.1875 L 5.609375 -8.734375 L 5.609375 -7.328125 C 5.609375 -6.773438 5.609375 -6.226562 5.609375 -5.6875 C 5.609375 -5.15625 5.609375 -4.613281 5.609375 -4.0625 L 5.609375 -3.890625 C 5.609375 -3.660156 5.601562 -3.414062 5.59375 -3.15625 C 5.582031 -2.90625 5.5625 -2.664062 5.53125 -2.4375 C 5.425781 -1.9375 5.210938 -1.523438 4.890625 -1.203125 C 4.566406 -0.878906 4.175781 -0.695312 3.71875 -0.65625 C 3.257812 -0.601562 2.832031 -0.691406 2.4375 -0.921875 C 2.050781 -1.148438 1.78125 -1.472656 1.625 -1.890625 C 1.25 -2.859375 1.0625 -3.734375 1.0625 -4.515625 C 1.0625 -6.773438 1.070312 -9.039062 1.09375 -11.3125 C 1.125 -13.582031 1.160156 -15.820312 1.203125 -18.03125 L 1.203125 -18.3125 C 1.203125 -18.757812 1.296875 -19.257812 1.484375 -19.8125 C 1.753906 -20.632812 2.253906 -21.035156 2.984375 -21.015625 C 3.722656 -20.992188 4.175781 -20.601562 4.34375 -19.84375 C 4.457031 -19.382812 4.550781 -18.921875 4.625 -18.453125 C 4.707031 -17.984375 4.78125 -17.507812 4.84375 -17.03125 L 4.953125 -16.34375 C 4.992188 -16.09375 5.023438 -15.847656 5.046875 -15.609375 C 5.078125 -15.367188 5.101562 -15.117188 5.125 -14.859375 C 5.164062 -14.585938 5.191406 -14.328125 5.203125 -14.078125 L 5.265625 -13.546875 L 5.890625 -14 C 6.003906 -14.070312 6.09375 -14.140625 6.15625 -14.203125 L 13.515625 -20.84375 C 13.546875 -20.875 13.617188 -20.929688 13.734375 -21.015625 L 13.796875 -21.046875 C 14.390625 -21.421875 14.960938 -21.597656 15.515625 -21.578125 C 16.066406 -21.554688 16.515625 -21.328125 16.859375 -20.890625 C 17.222656 -20.429688 17.351562 -19.921875 17.25 -19.359375 C 17.144531 -18.796875 16.832031 -18.296875 16.3125 -17.859375 C 15.738281 -17.378906 15.148438 -16.898438 14.546875 -16.421875 C 13.953125 -15.953125 13.359375 -15.476562 12.765625 -15 C 12.460938 -14.769531 12.15625 -14.535156 11.84375 -14.296875 C 11.539062 -14.054688 11.238281 -13.8125 10.9375 -13.5625 C 10.726562 -13.414062 10.523438 -13.253906 10.328125 -13.078125 C 10.140625 -12.910156 9.941406 -12.738281 9.734375 -12.5625 L 8.875 -11.84375 L 9.328125 -11.421875 C 9.410156 -11.359375 9.476562 -11.296875 9.53125 -11.234375 C 9.59375 -11.179688 9.648438 -11.140625 9.703125 -11.109375 C 10.109375 -10.785156 10.503906 -10.460938 10.890625 -10.140625 C 11.285156 -9.828125 11.679688 -9.507812 12.078125 -9.1875 C 12.953125 -8.5 13.820312 -7.804688 14.6875 -7.109375 C 15.5625 -6.410156 16.429688 -5.710938 17.296875 -5.015625 Z M 17.296875 -5.015625 "/></g></g></g><g fill="#a5b68d" fill-opacity="1"><g transform="translate(177.886898, 246.986381)"><g/></g></g><g fill="#a5b68d" fill-opacity="1"><g transform="translate(186.100036, 246.986381)"><g><path d="M 21.4375 -20.5 C 21.550781 -19.925781 21.609375 -19.3125 21.609375 -18.65625 L 21.546875 -16.3125 C 21.515625 -14.5 21.476562 -12.660156 21.4375 -10.796875 C 21.40625 -8.941406 21.347656 -7.085938 21.265625 -5.234375 C 21.210938 -3.253906 20.628906 -1.957031 19.515625 -1.34375 C 18.453125 -0.75 17.082031 -0.929688 15.40625 -1.890625 C 14.539062 -2.390625 13.75 -2.984375 13.03125 -3.671875 C 12.320312 -4.367188 11.738281 -4.992188 11.28125 -5.546875 C 10.707031 -6.203125 10.160156 -6.882812 9.640625 -7.59375 C 9.128906 -8.3125 8.625 -9.023438 8.125 -9.734375 C 7.914062 -10.015625 7.710938 -10.296875 7.515625 -10.578125 C 7.316406 -10.867188 7.113281 -11.160156 6.90625 -11.453125 L 6.78125 -11.65625 C 6.664062 -11.800781 6.539062 -11.953125 6.40625 -12.109375 C 6.28125 -12.273438 6.109375 -12.4375 5.890625 -12.59375 L 5.40625 -12.96875 L 5.40625 -12.046875 C 5.40625 -11.929688 5.40625 -11.820312 5.40625 -11.71875 C 5.40625 -11.613281 5.40625 -11.503906 5.40625 -11.390625 L 5.328125 -9.53125 C 5.285156 -8.34375 5.242188 -7.144531 5.203125 -5.9375 C 5.171875 -4.726562 5.125 -3.53125 5.0625 -2.34375 C 5.039062 -1.90625 4.914062 -1.46875 4.6875 -1.03125 C 4.40625 -0.4375 4.007812 -0.128906 3.5 -0.109375 C 3 -0.078125 2.585938 -0.335938 2.265625 -0.890625 C 1.953125 -1.347656 1.78125 -1.796875 1.75 -2.234375 C 1.382812 -5.234375 1.160156 -7.988281 1.078125 -10.5 C 1.003906 -13.019531 1.070312 -15.4375 1.28125 -17.75 C 1.300781 -18.144531 1.410156 -18.5625 1.609375 -19 C 1.910156 -19.789062 2.414062 -20.304688 3.125 -20.546875 C 3.382812 -20.628906 3.640625 -20.671875 3.890625 -20.671875 C 4.347656 -20.671875 4.785156 -20.546875 5.203125 -20.296875 C 5.816406 -19.953125 6.332031 -19.515625 6.75 -18.984375 C 7.226562 -18.367188 7.707031 -17.742188 8.1875 -17.109375 C 8.664062 -16.484375 9.132812 -15.863281 9.59375 -15.25 C 9.851562 -14.90625 10.113281 -14.5625 10.375 -14.21875 C 10.632812 -13.882812 10.894531 -13.546875 11.15625 -13.203125 C 11.613281 -12.585938 12.070312 -11.984375 12.53125 -11.390625 C 12.988281 -10.796875 13.445312 -10.195312 13.90625 -9.59375 L 15.3125 -7.78125 L 16.0625 -8.078125 L 16.09375 -8.59375 C 16.101562 -8.707031 16.109375 -8.820312 16.109375 -8.9375 C 16.109375 -9.050781 16.117188 -9.164062 16.140625 -9.28125 C 16.140625 -9.71875 16.148438 -10.15625 16.171875 -10.59375 C 16.191406 -11.03125 16.203125 -11.46875 16.203125 -11.90625 C 16.242188 -13 16.28125 -14.097656 16.3125 -15.203125 C 16.351562 -16.304688 16.394531 -17.410156 16.4375 -18.515625 C 16.488281 -19.359375 16.664062 -20.179688 16.96875 -20.984375 C 17.1875 -21.492188 17.519531 -21.882812 17.96875 -22.15625 C 18.414062 -22.425781 18.90625 -22.53125 19.4375 -22.46875 C 19.9375 -22.414062 20.367188 -22.207031 20.734375 -21.84375 C 21.109375 -21.476562 21.34375 -21.03125 21.4375 -20.5 Z M 21.4375 -20.5 "/></g></g></g><g fill="#a5b68d" fill-opacity="1"><g transform="translate(208.793473, 246.986381)"><g><path d="M 6.5 -20.875 L 6.6875 -20.5625 C 6.226562 -18.726562 5.410156 -16.492188 4.234375 -13.859375 L 2.3125 -13.859375 C 2.96875 -16.679688 3.4375 -19.019531 3.71875 -20.875 Z M 6.328125 -17.8125 Z M 6.265625 -25.65625 Z M 6.265625 -25.65625 "/></g></g></g><g fill="#a5b68d" fill-opacity="1"><g transform="translate(217.708396, 246.986381)"><g/></g></g><g fill="#a5b68d" fill-opacity="1"><g transform="translate(225.921534, 246.986381)"><g><path d="M 12.703125 -5.203125 C 13.046875 -5.222656 13.414062 -5.171875 13.8125 -5.046875 C 14.21875 -4.921875 14.535156 -4.613281 14.765625 -4.125 C 15.128906 -3.363281 14.96875 -2.609375 14.28125 -1.859375 C 13.863281 -1.398438 13.367188 -1.03125 12.796875 -0.75 C 10.347656 0.4375 7.675781 0.742188 4.78125 0.171875 C 3.082031 -0.171875 1.972656 -1.28125 1.453125 -3.15625 C 1.128906 -4.332031 0.992188 -5.515625 1.046875 -6.703125 C 1.109375 -7.898438 1.21875 -9.023438 1.375 -10.078125 C 1.507812 -10.953125 1.648438 -11.828125 1.796875 -12.703125 C 1.953125 -13.585938 2.109375 -14.457031 2.265625 -15.3125 C 2.335938 -15.726562 2.40625 -16.140625 2.46875 -16.546875 C 2.539062 -16.960938 2.613281 -17.382812 2.6875 -17.8125 L 2.71875 -17.921875 C 2.738281 -18.035156 2.757812 -18.15625 2.78125 -18.28125 C 2.800781 -18.40625 2.789062 -18.53125 2.75 -18.65625 C 2.539062 -19.707031 3 -20.539062 4.125 -21.15625 C 4.332031 -21.269531 4.546875 -21.375 4.765625 -21.46875 C 4.984375 -21.5625 5.207031 -21.628906 5.4375 -21.671875 L 6.671875 -21.84375 C 7.546875 -21.957031 8.4375 -22.078125 9.34375 -22.203125 C 10.25 -22.328125 11.148438 -22.40625 12.046875 -22.4375 C 12.128906 -22.4375 12.207031 -22.4375 12.28125 -22.4375 C 13.175781 -22.4375 13.898438 -22.179688 14.453125 -21.671875 C 14.953125 -21.234375 15.210938 -20.6875 15.234375 -20.03125 C 15.242188 -19.3125 14.96875 -18.710938 14.40625 -18.234375 C 13.84375 -17.753906 13.101562 -17.488281 12.1875 -17.4375 C 11.601562 -17.394531 11.015625 -17.382812 10.421875 -17.40625 C 9.828125 -17.425781 9.234375 -17.453125 8.640625 -17.484375 L 7.90625 -17.515625 C 7.539062 -17.535156 7.253906 -17.539062 7.046875 -17.53125 C 6.835938 -17.519531 6.664062 -17.445312 6.53125 -17.3125 C 6.394531 -17.195312 6.316406 -17.035156 6.296875 -16.828125 C 6.273438 -16.617188 6.265625 -16.332031 6.265625 -15.96875 C 6.265625 -15.601562 6.265625 -15.238281 6.265625 -14.875 C 6.265625 -14.519531 6.265625 -14.160156 6.265625 -13.796875 L 6.265625 -12.359375 L 6.640625 -12.421875 C 6.847656 -12.460938 7.050781 -12.5 7.25 -12.53125 C 7.457031 -12.570312 7.664062 -12.625 7.875 -12.6875 C 8.3125 -12.757812 8.742188 -12.832031 9.171875 -12.90625 C 9.597656 -12.988281 10.023438 -13.046875 10.453125 -13.078125 C 11.515625 -13.171875 12.503906 -13.113281 13.421875 -12.90625 C 14.242188 -12.738281 14.679688 -12.234375 14.734375 -11.390625 C 14.773438 -10.910156 14.671875 -10.53125 14.421875 -10.25 C 14.179688 -9.976562 13.925781 -9.773438 13.65625 -9.640625 C 12.988281 -9.296875 12.335938 -9.097656 11.703125 -9.046875 C 11.097656 -8.984375 10.472656 -8.9375 9.828125 -8.90625 C 9.191406 -8.882812 8.550781 -8.851562 7.90625 -8.8125 C 7.632812 -8.8125 7.359375 -8.800781 7.078125 -8.78125 C 6.804688 -8.769531 6.523438 -8.765625 6.234375 -8.765625 L 5.953125 -8.734375 L 5.953125 -8.4375 C 5.953125 -8.3125 5.953125 -8.175781 5.953125 -8.03125 C 5.953125 -7.882812 5.953125 -7.742188 5.953125 -7.609375 C 5.953125 -7.210938 5.953125 -6.804688 5.953125 -6.390625 C 5.953125 -5.984375 5.960938 -5.582031 5.984375 -5.1875 C 5.984375 -5.050781 6.023438 -4.929688 6.109375 -4.828125 C 6.191406 -4.722656 6.265625 -4.640625 6.328125 -4.578125 C 6.398438 -4.523438 6.492188 -4.460938 6.609375 -4.390625 C 6.722656 -4.328125 6.847656 -4.296875 6.984375 -4.296875 C 8.054688 -4.367188 9.238281 -4.507812 10.53125 -4.71875 C 10.707031 -4.738281 10.875 -4.769531 11.03125 -4.8125 C 11.195312 -4.863281 11.351562 -4.910156 11.5 -4.953125 C 11.71875 -5.003906 11.925781 -5.054688 12.125 -5.109375 C 12.320312 -5.160156 12.515625 -5.191406 12.703125 -5.203125 Z M 12.703125 -5.203125 "/></g></g></g><g fill="#a5b68d" fill-opacity="1"><g transform="translate(242.204724, 246.986381)"><g><path d="M 21.890625 -4.6875 C 21.910156 -4.5625 21.941406 -4.441406 21.984375 -4.328125 C 21.960938 -3.617188 21.800781 -3.023438 21.5 -2.546875 C 21.207031 -2.066406 20.796875 -1.753906 20.265625 -1.609375 C 19.734375 -1.429688 19.21875 -1.445312 18.71875 -1.65625 C 18.21875 -1.863281 17.816406 -2.21875 17.515625 -2.71875 C 17.191406 -3.269531 16.914062 -3.957031 16.6875 -4.78125 C 16.613281 -5.082031 16.476562 -5.359375 16.28125 -5.609375 C 16.09375 -5.859375 15.75 -5.992188 15.25 -6.015625 C 14.695312 -6.035156 14.144531 -6.050781 13.59375 -6.0625 C 13.039062 -6.082031 12.488281 -6.101562 11.9375 -6.125 C 11.207031 -6.164062 10.46875 -6.195312 9.71875 -6.21875 C 8.976562 -6.25 8.238281 -6.273438 7.5 -6.296875 C 7.3125 -6.296875 7.101562 -6.210938 6.875 -6.046875 C 6.644531 -5.890625 6.472656 -5.722656 6.359375 -5.546875 C 6.203125 -5.285156 6.050781 -5.015625 5.90625 -4.734375 C 5.769531 -4.460938 5.632812 -4.191406 5.5 -3.921875 C 5.363281 -3.648438 5.222656 -3.367188 5.078125 -3.078125 C 4.929688 -2.796875 4.773438 -2.523438 4.609375 -2.265625 C 3.941406 -1.097656 3.128906 -0.722656 2.171875 -1.140625 C 1.796875 -1.296875 1.488281 -1.601562 1.25 -2.0625 C 1.007812 -2.519531 0.984375 -3.050781 1.171875 -3.65625 C 1.835938 -5.738281 2.695312 -8.097656 3.75 -10.734375 C 4.414062 -12.410156 5.253906 -14.300781 6.265625 -16.40625 C 6.554688 -17 6.875 -17.625 7.21875 -18.28125 C 7.570312 -18.9375 7.960938 -19.578125 8.390625 -20.203125 C 8.828125 -20.835938 9.46875 -21.394531 10.3125 -21.875 C 10.9375 -22.25 11.535156 -22.4375 12.109375 -22.4375 C 13.117188 -22.4375 13.957031 -21.875 14.625 -20.75 C 15.945312 -18.5 17.234375 -16.15625 18.484375 -13.71875 C 19.742188 -11.289062 20.765625 -8.734375 21.546875 -6.046875 C 21.628906 -5.796875 21.695312 -5.554688 21.75 -5.328125 C 21.8125 -5.097656 21.859375 -4.882812 21.890625 -4.6875 Z M 9.1875 -11.140625 L 14.546875 -11.140625 L 11.484375 -17.40625 Z M 9.1875 -11.140625 "/></g></g></g><g fill="#a5b68d" fill-opacity="1"><g transform="translate(265.241577, 246.986381)"><g><path d="M 16.234375 -21.0625 C 16.835938 -20.894531 17.3125 -20.585938 17.65625 -20.140625 C 18 -19.691406 18.144531 -19.191406 18.09375 -18.640625 C 18.03125 -18.066406 17.796875 -17.582031 17.390625 -17.1875 C 16.984375 -16.800781 16.460938 -16.585938 15.828125 -16.546875 C 15.523438 -16.523438 15.21875 -16.515625 14.90625 -16.515625 C 14.601562 -16.515625 14.300781 -16.515625 14 -16.515625 C 13.84375 -16.515625 13.691406 -16.515625 13.546875 -16.515625 C 13.410156 -16.515625 13.265625 -16.515625 13.109375 -16.515625 L 10.484375 -16.515625 L 10.53125 -16.171875 C 10.570312 -15.804688 10.617188 -15.453125 10.671875 -15.109375 C 10.734375 -14.765625 10.78125 -14.421875 10.8125 -14.078125 C 10.925781 -13.316406 11.03125 -12.566406 11.125 -11.828125 C 11.226562 -11.097656 11.316406 -10.367188 11.390625 -9.640625 C 11.484375 -8.835938 11.570312 -7.984375 11.65625 -7.078125 C 11.75 -6.171875 11.8125 -5.242188 11.84375 -4.296875 C 11.863281 -3.609375 11.734375 -2.882812 11.453125 -2.125 C 11.066406 -1.164062 10.347656 -0.675781 9.296875 -0.65625 C 8.234375 -0.675781 7.519531 -1.15625 7.15625 -2.09375 C 6.8125 -3.007812 6.640625 -3.914062 6.640625 -4.8125 C 6.640625 -6.070312 6.648438 -7.328125 6.671875 -8.578125 C 6.691406 -9.828125 6.71875 -11.070312 6.75 -12.3125 C 6.75 -12.800781 6.753906 -13.296875 6.765625 -13.796875 C 6.773438 -14.296875 6.789062 -14.800781 6.8125 -15.3125 C 6.8125 -15.382812 6.800781 -15.519531 6.78125 -15.71875 L 6.75 -16.203125 L 5.8125 -16.28125 C 5.488281 -16.320312 5.160156 -16.359375 4.828125 -16.390625 C 4.503906 -16.421875 4.179688 -16.453125 3.859375 -16.484375 C 3.691406 -16.503906 3.535156 -16.523438 3.390625 -16.546875 C 3.242188 -16.566406 3.097656 -16.59375 2.953125 -16.625 C 1.722656 -16.914062 1.09375 -17.546875 1.0625 -18.515625 C 1.019531 -19.523438 1.628906 -20.210938 2.890625 -20.578125 L 2.984375 -20.578125 C 3.035156 -20.617188 3.070312 -20.640625 3.09375 -20.640625 C 3.695312 -20.679688 4.304688 -20.726562 4.921875 -20.78125 C 5.535156 -20.84375 6.140625 -20.910156 6.734375 -20.984375 C 7.703125 -21.078125 8.675781 -21.171875 9.65625 -21.265625 C 10.644531 -21.359375 11.625 -21.40625 12.59375 -21.40625 C 13.09375 -21.40625 13.582031 -21.390625 14.0625 -21.359375 C 14.550781 -21.335938 15.046875 -21.289062 15.546875 -21.21875 C 15.796875 -21.175781 16.023438 -21.125 16.234375 -21.0625 Z M 16.234375 -21.0625 "/></g></g></g></svg>